<svg fill="none" height="24" viewBox="0 0 24 24" width="24" xmlns="http://www.w3.org/2000/svg"><path d="m2 22v-20" stroke="#141b34" stroke-linecap="round" stroke-width="1.5"/><path d="m22 22v-20" stroke="#141b34" stroke-linecap="round" stroke-width="1.5"/><path d="m16.2901 18.242c.1336.392.5598.6015.9519.4679.392-.1336.6015-.5598.4679-.9519zm-1.701-7.3152-.7099.2419zm-5.17819 0-.7099-.242zm-3.12081 6.8312c-.13363.3921.07587.8183.46793.9519.39207.1336.81823-.0759.95187-.4679zm2.7099-5.508c-.41421 0-.75.3358-.75.75s.33579.75.75.75zm6 1.5c.4142 0 .75-.3358.75-.75s-.3358-.75-.75-.75zm2.7099 4.008-2.4109-7.0732-1.4198.4839 2.4109 7.0733zm-9.00889-7.0732-2.41091 7.0732 1.4198.484 2.4109-7.0733zm6.59799 0c-.5527-1.62162-.9891-2.9059-1.4068-3.7773-.2088-.43571-.4404-.82871-.7213-1.12012-.2956-.30663-.6845-.53738-1.1709-.53738v1.5c.0002 0-.0005 0-.0017-.00014-.0013-.00015-.0026-.00038-.0039-.00068-.0029-.00069-.0026-.00104.0017.00108.0094.00461.0417.02298.0949.07821.1149.11915.2638.342.4486.72741.3695.77086.7728 1.94998 1.3396 3.61282zm-5.1782.4839c.5668-1.66284.9701-2.84196 1.3396-3.61282.1848-.38541.3337-.60826.4486-.72741.0532-.05523.0855-.0736.0949-.07821.0043-.00212.0046-.00177.0017-.00108-.0013.0003-.0026.00053-.0039.00068-.0012.00014-.0019.00014-.0017.00014v-1.5c-.4864 0-.8753.23075-1.1709.53738-.2809.29141-.5125.68441-.7213 1.12012-.41772.8714-.85406 2.15568-1.40679 3.7773zm-1.1208 2.5813h6v-1.5h-6z" fill="#141b34"/></svg>