<svg width="20" height="20" viewBox="0 0 20 20" fill="none" xmlns="http://www.w3.org/2000/svg">
<path fill-rule="evenodd" clip-rule="evenodd" d="M3.25012 11.9869C3.25012 11.5717 3.58591 11.2352 4.00012 11.2352H5.50012C5.91434 11.2352 6.25012 11.5717 6.25012 11.9869C6.25012 12.4021 5.91434 12.7387 5.50012 12.7387H4.00012C3.58591 12.7387 3.25012 12.4021 3.25012 11.9869Z" fill="#201F29"></path>
<path fill-rule="evenodd" clip-rule="evenodd" d="M13.7501 11.9869C13.7501 11.5717 14.0859 11.2352 14.5001 11.2352H16.0001C16.4143 11.2352 16.7501 11.5717 16.7501 11.9869C16.7501 12.4021 16.4143 12.7387 16.0001 12.7387H14.5001C14.0859 12.7387 13.7501 12.4021 13.7501 11.9869Z" fill="#201F29"></path>
<path fill-rule="evenodd" clip-rule="evenodd" d="M9.78915 2H10.211C11.5438 1.99999 12.6073 1.99998 13.465 2.09719C14.3512 2.19765 15.092 2.40823 15.7527 2.8781C16.4134 3.34797 16.8563 3.97925 17.2437 4.78456C17.5894 5.50341 17.9152 6.41526 18.3091 7.54208L19.0731 7.35643C19.4757 7.25861 19.8811 7.50642 19.9787 7.90992C20.0763 8.31343 19.8291 8.71983 19.4265 8.81765L18.9011 8.94532C19.4472 9.63874 19.7113 10.4829 19.8467 11.4923C19.9999 12.6342 19.9999 14.0932 19.9999 15.9352L19.9999 17.2481C19.9999 17.6633 19.6641 17.9999 19.2499 17.9999C18.8357 17.9999 18.4999 17.6633 18.4999 17.2481L18.4999 15.9919C18.4999 14.0806 18.4983 12.7227 18.3601 11.6926C18.2248 10.6842 17.9711 10.1032 17.5479 9.67898C17.1247 9.25478 16.5451 9.00051 15.539 8.86493C14.5113 8.72644 13.1567 8.72484 11.2499 8.72484H8.75049C6.84366 8.72484 5.48899 8.72644 4.46132 8.86493C3.45523 9.00052 2.87559 9.25479 2.45237 9.679C2.02917 10.1032 1.7755 10.6842 1.64023 11.6927C1.50207 12.7228 1.50048 14.0807 1.50049 15.992L1.50049 17.2481C1.50049 17.6633 1.16471 17.9999 0.750496 17.9999C0.336283 17.9999 0.000494949 17.6633 0.000493578 17.2481L0.000488809 15.9355C0.000466756 14.0933 0.000449285 12.6343 0.153609 11.4924C0.288997 10.483 0.553114 9.63881 1.09915 8.94539L0.573473 8.81765C0.17092 8.71983 -0.0763031 8.31343 0.0212856 7.90992C0.118874 7.50642 0.52432 7.25861 0.926873 7.35643L1.69106 7.54212C2.08511 6.41522 2.41087 5.5033 2.75667 4.78442C3.14403 3.97915 3.58701 3.3479 4.24769 2.87805C4.90836 2.40821 5.64911 2.19764 6.53534 2.09719C7.39296 1.99998 8.45641 1.99999 9.78915 2ZM3.27187 7.56916C3.58228 7.48454 3.91193 7.4219 4.26145 7.3748C5.40067 7.22127 6.85631 7.22128 8.69407 7.2213H11.3063C13.144 7.22128 14.5997 7.22127 15.7389 7.37479C16.0883 7.42189 16.418 7.48453 16.7283 7.56913C16.4095 6.66652 16.1539 5.98096 15.8925 5.43753C15.5671 4.7609 15.2638 4.37393 14.8847 4.10435C14.5056 3.83477 14.0411 3.67562 13.2964 3.59122C12.5328 3.50466 11.5541 3.50355 10.166 3.50355H9.83414C8.44615 3.50355 7.46748 3.50466 6.70389 3.59121C5.95927 3.67561 5.4947 3.83475 5.11565 4.10432C4.73659 4.37388 4.43327 4.76084 4.10781 5.43743C3.84639 5.98088 3.59074 6.66648 3.27187 7.56916Z" fill="#201F29"></path>
<path d="M13.789 15.8068C13.9769 15.8068 14.03 15.8073 14.0691 15.8102C14.6868 15.856 15.1779 16.3482 15.2235 16.9674C15.2264 17.0065 15.2269 17.0598 15.2269 17.2481C15.2269 17.6633 15.5627 17.9999 15.9769 17.9999C16.3912 17.9999 16.7269 17.6633 16.7269 17.2481L16.727 17.2205C16.727 17.0726 16.727 16.9587 16.7195 16.8565C16.619 15.4944 15.5386 14.4114 14.1797 14.3107C14.0777 14.3032 13.9641 14.3032 13.8166 14.3032L6.16053 14.3033C6.01295 14.3033 5.89927 14.3033 5.7973 14.3108C4.43846 14.4116 3.3581 15.4945 3.25762 16.8565C3.25008 16.9588 3.2501 17.0727 3.25012 17.2206L3.25013 17.2482C3.25013 17.6634 3.58591 18 4.00013 18C4.41434 18 4.75013 17.6634 4.75013 17.2482C4.75013 17.0598 4.75064 17.0066 4.75353 16.9674C4.7992 16.3483 5.29028 15.8561 5.90793 15.8103C5.947 15.8074 6.00013 15.8069 6.18808 15.8069L13.789 15.8068Z" fill="#201F29"></path>
</svg>