<svg width="20" height="20" viewBox="0 0 20 20" fill="none" xmlns="http://www.w3.org/2000/svg">
<path fill-rule="evenodd" clip-rule="evenodd" d="M10.2149 2H9.78533C8.45345 1.99999 7.39067 1.99998 6.53355 2.09717C5.64783 2.1976 4.90746 2.40812 4.247 2.87786C3.58655 3.3476 3.14349 3.97876 2.75588 4.78396C2.41654 5.48889 2.09633 6.37946 1.71201 7.47636L0.926873 7.28543C0.52432 7.18753 0.118874 7.43553 0.0212856 7.83935C-0.0763031 8.24317 0.17092 8.6499 0.573473 8.74779L1.14123 8.88586C0.566598 9.58959 0.292444 10.4515 0.153625 11.4873C0.000465393 12.6301 0.000482861 14.0903 0.000504915 15.9339L0.000497345 16.279C0.000417356 16.4847 0.000330869 16.7072 0.0255012 16.895C0.0549881 17.115 0.130821 17.3961 0.36661 17.6326C0.6024 17.8692 0.882578 17.9453 1.1019 17.9748C1.2891 18.0001 1.51088 18 1.71599 17.9999L3.28621 18C3.37942 18 3.48055 18 3.56859 17.9945C3.6675 17.9883 3.79902 17.9731 3.94069 17.9195C4.27738 17.7923 4.54311 17.5258 4.66992 17.188C4.72328 17.0459 4.73847 16.914 4.74467 16.8148C4.75018 16.7264 4.75016 16.625 4.75015 16.5314L4.75014 16.516C4.75014 16.2924 4.75049 16.1592 4.7567 16.0597C4.76056 15.9978 4.76576 15.9714 4.76731 15.9646C4.79272 15.8995 4.84413 15.8479 4.90909 15.8224C4.91582 15.8208 4.94214 15.8156 5.00382 15.8118C5.10302 15.8055 5.2358 15.8052 5.45875 15.8052L14.5183 15.8051C14.7413 15.8051 14.8741 15.8054 14.9733 15.8117C15.035 15.8155 15.0613 15.8207 15.068 15.8223C15.133 15.8478 15.1844 15.8994 15.2098 15.9645C15.2113 15.9713 15.2165 15.9977 15.2204 16.0596C15.2266 16.1591 15.227 16.2923 15.227 16.5159L15.227 16.5314C15.2269 16.6249 15.2269 16.7263 15.2324 16.8147C15.2386 16.9139 15.2538 17.0458 15.3072 17.1879C15.434 17.5257 15.6997 17.7922 16.0364 17.9194C16.1781 17.973 16.3096 17.9882 16.4085 17.9944C16.4965 17.9999 16.5977 17.9999 16.6909 17.9999L18.2844 17.9999C18.4895 18 18.7113 18.0001 18.8985 17.9748C19.1178 17.9453 19.398 17.8692 19.6338 17.6326C19.8696 17.3961 19.9454 17.115 19.9749 16.895C20.0001 16.7072 20 16.4847 19.9999 16.279L19.9999 15.9337C19.9999 14.0902 19.9999 12.63 19.8467 11.4872C19.7079 10.4514 19.4337 9.58951 18.8591 8.88579L19.4265 8.74779C19.8291 8.6499 20.0763 8.24317 19.9787 7.83935C19.8811 7.43553 19.4757 7.18753 19.0731 7.28543L18.2882 7.47632C17.9039 6.37952 17.5838 5.48899 17.2445 4.78411C16.8569 3.97887 16.4138 3.34767 15.7534 2.8779C15.0929 2.40814 14.3525 2.19761 13.4668 2.09717C12.6096 1.99998 11.5468 1.99999 10.2149 2ZM16.7271 7.56064C16.4094 6.66263 16.1544 5.97993 15.8937 5.43839C15.5681 4.76184 15.2647 4.37492 14.8858 4.10539C14.5068 3.83587 14.0425 3.67676 13.2983 3.59237C12.5351 3.50584 11.557 3.50472 10.1699 3.50472H9.8303C8.44319 3.50472 7.46516 3.50584 6.70203 3.59237C5.95786 3.67675 5.49351 3.83585 5.11457 4.10536C4.73564 4.37487 4.43229 4.76178 4.10663 5.43829C3.84594 5.97985 3.59087 6.66259 3.27313 7.56069C3.58317 7.47618 3.91242 7.41359 4.26147 7.36651C5.40068 7.21286 6.85633 7.21288 8.69409 7.21289H11.3063C13.1441 7.21288 14.5997 7.21286 15.7389 7.36651C16.0879 7.41358 16.4171 7.47616 16.7271 7.56064ZM17.0144 12.0917C17.0144 12.7882 16.4516 13.2174 15.7573 13.2174C15.063 13.2174 14.5001 12.7882 14.5001 12.0917C14.5001 11.3952 15.063 10.9791 15.7573 10.9791C16.4516 10.9791 17.0144 11.3952 17.0144 12.0917ZM5.5144 12.2095C5.5144 12.906 4.95156 13.3352 4.25726 13.3352C3.56296 13.3352 3.00012 12.906 3.00012 12.2095C3.00012 11.513 3.56296 11.0969 4.25726 11.0969C4.95156 11.0969 5.5144 11.513 5.5144 12.2095Z" fill="#201F29"></path>
</svg>