<svg width="20" height="20" viewBox="0 0 20 20" fill="none" xmlns="http://www.w3.org/2000/svg">
<path d="M5.5144 12.2095C5.5144 12.9059 4.95156 13.3352 4.25726 13.3352C3.56296 13.3352 3.00012 12.9059 3.00012 12.2095C3.00012 11.513 3.56296 11.0969 4.25726 11.0969C4.95156 11.0969 5.5144 11.513 5.5144 12.2095Z" fill="#201F29"></path>
<path d="M17.0144 12.0917C17.0144 12.7881 16.4516 13.2174 15.7573 13.2174C15.063 13.2174 14.5001 12.7881 14.5001 12.0917C14.5001 11.3952 15.063 10.9791 15.7573 10.9791C16.4516 10.9791 17.0144 11.3952 17.0144 12.0917Z" fill="#201F29"></path>
<path fill-rule="evenodd" clip-rule="evenodd" d="M10.2149 2H9.78533C8.45345 1.99999 7.39067 1.99998 6.53355 2.09717C5.64783 2.1976 4.90746 2.40812 4.247 2.87786C3.58655 3.34759 3.14349 3.97876 2.75588 4.78396C2.41654 5.48889 2.09633 6.37946 1.712 7.47636L0.926873 7.28542C0.52432 7.18753 0.118874 7.43553 0.0212856 7.83935C-0.0763031 8.24317 0.17092 8.64989 0.573473 8.74778L1.14121 8.88585C0.566583 9.58958 0.292428 10.4515 0.153609 11.4873C0.000449285 12.6301 0.000466756 14.0903 0.000488809 15.9338L0.000493578 17.2475C0.000494949 17.663 0.336283 17.9999 0.750496 17.9999C1.16471 17.9999 1.50049 17.663 1.50049 17.2475L1.50049 15.9904C1.50048 14.0776 1.50207 12.7187 1.64023 11.6878C1.7755 10.6785 2.02917 10.097 2.45237 9.67251C2.87559 9.24796 3.45523 8.99349 4.46132 8.8578C5.48899 8.7192 6.84366 8.7176 8.75049 8.7176H11.2499C13.1567 8.7176 14.5113 8.7192 15.539 8.8578C16.5451 8.99349 17.1247 9.24795 17.5479 9.67249C17.9711 10.097 18.2248 10.6785 18.3601 11.6877C18.4983 12.7186 18.4999 14.0775 18.4999 15.9903L18.4999 17.2475C18.4999 17.6631 18.8357 17.9999 19.2499 17.9999C19.6641 17.9999 19.9999 17.663 19.9999 17.2475L19.9999 15.9337C19.9999 14.0902 19.9999 12.63 19.8467 11.4872C19.7079 10.4514 19.4337 9.5895 18.8591 8.88579L19.4265 8.74778C19.8291 8.64989 20.0763 8.24317 19.9787 7.83935C19.8811 7.43553 19.4757 7.18753 19.0731 7.28542L18.2882 7.47631C17.9039 6.3795 17.5838 5.48899 17.2445 4.7841C16.8569 3.97887 16.4138 3.34767 15.7534 2.8779C15.0929 2.40814 14.3525 2.19761 13.4668 2.09717C12.6096 1.99998 11.5468 1.99999 10.2149 2ZM16.7271 7.56064C16.4094 6.66262 16.1544 5.97992 15.8937 5.43839C15.5681 4.76184 15.2647 4.37491 14.8858 4.10539C14.5068 3.83587 14.0425 3.67676 13.2983 3.59237C12.5351 3.50583 11.557 3.50472 10.1699 3.50472H9.8303C8.44319 3.50472 7.46516 3.50583 6.70203 3.59237C5.95786 3.67675 5.49351 3.83585 5.11457 4.10536C4.73564 4.37487 4.43229 4.76177 4.10663 5.43829C3.84594 5.97985 3.59087 6.66258 3.27313 7.56067C3.58317 7.47617 3.91241 7.41358 4.26145 7.3665C5.40067 7.21286 6.85631 7.21287 8.69407 7.21288H11.3063C13.144 7.21287 14.5997 7.21286 15.7389 7.3665C16.0879 7.41357 16.4171 7.47615 16.7271 7.56064Z" fill="#201F29"></path>
<path d="M13.789 15.8051C13.9769 15.8051 14.03 15.8056 14.0691 15.8085C14.6868 15.8543 15.1779 16.3469 15.2235 16.9666C15.2264 17.0057 15.2269 17.059 15.2269 17.2475C15.2269 17.663 15.5627 17.9999 15.9769 17.9999C16.3912 17.9999 16.7269 17.663 16.7269 17.2475L16.727 17.2199C16.727 17.0719 16.727 16.9579 16.7195 16.8556C16.619 15.4924 15.5386 14.4086 14.1797 14.3079C14.0777 14.3003 13.9641 14.3003 13.8166 14.3004L6.16053 14.3004C6.01295 14.3004 5.89927 14.3004 5.7973 14.3079C4.43846 14.4088 3.3581 15.4925 3.25762 16.8557C3.25008 16.9579 3.2501 17.072 3.25012 17.22L3.25013 17.2476C3.25013 17.6632 3.58591 18 4.00013 18C4.41434 18 4.75013 17.6632 4.75013 17.2476C4.75013 17.0591 4.75064 17.0058 4.75353 16.9666C4.7992 16.347 5.29028 15.8544 5.90793 15.8086C5.947 15.8057 6.00013 15.8052 6.18808 15.8052L13.789 15.8051Z" fill="#201F29"></path>
</svg>