<svg width="20" height="20" viewBox="0 0 20 20" fill="none" xmlns="http://www.w3.org/2000/svg">
<path d="M17.18 11.576C17.18 12.1245 16.7208 12.5692 16.1543 12.5692C15.5879 12.5692 15.1287 12.1245 15.1287 11.576C15.1287 11.0274 15.5879 10.5827 16.1543 10.5827C16.7208 10.5827 17.18 11.0274 17.18 11.576Z" fill="#201F29"></path>
<path fill-rule="evenodd" clip-rule="evenodd" d="M15.3251 2.23742C14.972 2.07791 14.6118 2.022 14.2278 2.00563C13.8651 1.99017 13.4293 2.0091 12.9146 2.03145L12.8821 2.03286C10.6106 2.13143 7.5274 2.34768 4.9983 2.82723C3.74087 3.06566 2.56639 3.37872 1.68817 3.80207C0.866627 4.1981 0 4.84344 0 5.8641L1.35715e-05 11.3508C-4.0959e-06 12.7089 -1.8401e-05 13.8037 0.119534 14.6647C0.243659 15.5586 0.509201 16.3113 1.12654 16.9091C1.74388 17.5069 2.52119 17.7641 3.44437 17.8843C4.33357 18 5.46415 18 6.8668 18H13.4003C14.6755 18 15.7035 18 16.5183 17.903C17.3623 17.8025 18.0814 17.5882 18.6779 17.0857C18.8125 16.9724 18.9388 16.8501 19.0559 16.7197C19.5748 16.142 19.7961 15.4457 19.8998 14.6284C20 13.8393 20 12.8438 20 11.6089V8.81461C20 7.02792 18.6906 5.53739 16.9505 5.19376C16.947 4.94328 16.9391 4.71799 16.9212 4.51695C16.8876 4.13916 16.8148 3.78577 16.6328 3.44832C16.3519 2.92747 15.875 2.48583 15.3251 2.23742ZM12.9509 3.5212C13.5069 3.49707 13.8739 3.48182 14.1601 3.49402C14.4325 3.50563 14.5716 3.54099 14.6747 3.58756C14.9183 3.69764 15.1446 3.90717 15.2691 4.13797C15.3201 4.23261 15.3638 4.36841 15.3884 4.64492C15.4005 4.78064 15.4071 4.93514 15.4106 5.11918H2.40857C3.09995 4.79263 4.10032 4.51562 5.29392 4.2893C7.70729 3.83169 10.6978 3.61897 12.9509 3.5212ZM16.1838 6.60901C17.2764 6.60901 18.1894 7.35399 18.4105 8.348H15.6533C13.8123 8.348 12.3199 9.79321 12.3199 11.576C12.3199 13.3587 13.8123 14.8039 15.6533 14.8039H18.3151C18.224 15.2535 18.0855 15.53 17.8951 15.742C17.8248 15.8202 17.7491 15.8936 17.6683 15.9616C17.3965 16.1905 17.0221 16.342 16.3306 16.4243C15.6206 16.5088 14.6875 16.5102 13.3494 16.5102H6.92308C5.45086 16.5102 4.42409 16.5086 3.64937 16.4077C2.89678 16.3097 2.49825 16.1305 2.21439 15.8556C1.93052 15.5807 1.74545 15.1948 1.64427 14.4661C1.54011 13.716 1.53848 12.7218 1.53847 11.2963L1.53846 6.60901H16.1838ZM18.4615 9.83783H15.6533C14.662 9.83783 13.8584 10.616 13.8584 11.576C13.8584 12.5359 14.662 13.3141 15.6533 13.3141H18.4478C18.4612 12.8218 18.4615 12.2457 18.4615 11.5596V9.83783Z" fill="#201F29"></path>
</svg>