<svg xmlns="http://www.w3.org/2000/svg" xmlns:xlink="http://www.w3.org/1999/xlink" width="1500" zoomAndPan="magnify" viewBox="0 0 1125 374.999991" height="500" preserveAspectRatio="xMidYMid meet" version="1.0"><defs><g/></defs><g fill="#ffffff" fill-opacity="1"><g transform="translate(201.018922, 248.007149)"><g><path d="M 23.765625 -49.5 L 23.765625 -62.453125 L 54.578125 -62.453125 C 61.242188 -62.453125 66.378906 -64.144531 69.984375 -67.53125 C 73.585938 -70.914062 75.390625 -75.503906 75.390625 -81.296875 C 75.390625 -86.765625 73.613281 -91.300781 70.0625 -94.90625 C 66.519531 -98.507812 61.414062 -100.3125 54.75 -100.3125 L 23.765625 -100.3125 L 23.765625 -113.75 L 55.234375 -113.75 C 62.441406 -113.75 68.722656 -112.351562 74.078125 -109.5625 C 79.429688 -106.78125 83.554688 -102.984375 86.453125 -98.171875 C 89.347656 -93.367188 90.796875 -87.851562 90.796875 -81.625 C 90.796875 -75.175781 89.347656 -69.546875 86.453125 -64.734375 C 83.554688 -59.929688 79.429688 -56.191406 74.078125 -53.515625 C 68.722656 -50.835938 62.441406 -49.5 55.234375 -49.5 Z M 13.4375 0 L 13.4375 -113.75 L 28.84375 -113.75 L 28.84375 0 Z M 79 0 L 37.703125 -50.96875 L 52.28125 -56.0625 L 98.5 0 Z M 79 0 "/></g></g></g><g fill="#ffffff" fill-opacity="1"><g transform="translate(299.039231, 248.007149)"><g><path d="M 46.390625 1.640625 C 38.734375 1.640625 31.84375 -0.160156 25.71875 -3.765625 C 19.601562 -7.367188 14.742188 -12.257812 11.140625 -18.4375 C 7.535156 -24.613281 5.734375 -31.523438 5.734375 -39.171875 C 5.734375 -46.710938 7.535156 -53.515625 11.140625 -59.578125 C 14.742188 -65.640625 19.601562 -70.472656 25.71875 -74.078125 C 31.84375 -77.691406 38.734375 -79.5 46.390625 -79.5 C 53.921875 -79.5 60.773438 -77.722656 66.953125 -74.171875 C 73.128906 -70.617188 78.019531 -65.78125 81.625 -59.65625 C 85.226562 -53.539062 87.03125 -46.710938 87.03125 -39.171875 C 87.03125 -31.523438 85.226562 -24.613281 81.625 -18.4375 C 78.019531 -12.257812 73.128906 -7.367188 66.953125 -3.765625 C 60.773438 -0.160156 53.921875 1.640625 46.390625 1.640625 Z M 46.390625 -12.625 C 51.304688 -12.625 55.675781 -13.769531 59.5 -16.0625 C 63.320312 -18.351562 66.328125 -21.492188 68.515625 -25.484375 C 70.703125 -29.472656 71.796875 -34.035156 71.796875 -39.171875 C 71.796875 -44.203125 70.675781 -48.679688 68.4375 -52.609375 C 66.195312 -56.546875 63.191406 -59.632812 59.421875 -61.875 C 55.648438 -64.113281 51.304688 -65.234375 46.390625 -65.234375 C 41.472656 -65.234375 37.097656 -64.113281 33.265625 -61.875 C 29.441406 -59.632812 26.4375 -56.546875 24.25 -52.609375 C 22.070312 -48.679688 20.984375 -44.203125 20.984375 -39.171875 C 20.984375 -34.035156 22.070312 -29.472656 24.25 -25.484375 C 26.4375 -21.492188 29.441406 -18.351562 33.265625 -16.0625 C 37.097656 -13.769531 41.472656 -12.625 46.390625 -12.625 Z M 46.390625 -12.625 "/></g></g></g><g fill="#ffffff" fill-opacity="1"><g transform="translate(386.56906, 248.007149)"><g><path d="M 43.921875 1.640625 C 36.816406 1.640625 30.367188 -0.132812 24.578125 -3.6875 C 18.796875 -7.238281 14.238281 -12.070312 10.90625 -18.1875 C 7.570312 -24.3125 5.90625 -31.195312 5.90625 -38.84375 C 5.90625 -46.488281 7.570312 -53.367188 10.90625 -59.484375 C 14.238281 -65.609375 18.769531 -70.472656 24.5 -74.078125 C 30.238281 -77.691406 36.710938 -79.5 43.921875 -79.5 C 49.828125 -79.5 55.097656 -78.269531 59.734375 -75.8125 C 64.378906 -73.351562 68.125 -69.960938 70.96875 -65.640625 C 73.8125 -61.328125 75.394531 -56.328125 75.71875 -50.640625 L 75.71875 -27.203125 C 75.394531 -21.628906 73.835938 -16.65625 71.046875 -12.28125 C 68.265625 -7.914062 64.550781 -4.503906 59.90625 -2.046875 C 55.257812 0.410156 49.929688 1.640625 43.921875 1.640625 Z M 46.390625 -12.296875 C 53.710938 -12.296875 59.613281 -14.78125 64.09375 -19.75 C 68.570312 -24.71875 70.8125 -31.082031 70.8125 -38.84375 C 70.8125 -44.195312 69.800781 -48.867188 67.78125 -52.859375 C 65.757812 -56.847656 62.890625 -59.960938 59.171875 -62.203125 C 55.453125 -64.441406 51.132812 -65.5625 46.21875 -65.5625 C 41.300781 -65.5625 36.957031 -64.410156 33.1875 -62.109375 C 29.414062 -59.816406 26.460938 -56.675781 24.328125 -52.6875 C 22.203125 -48.707031 21.140625 -44.148438 21.140625 -39.015625 C 21.140625 -33.765625 22.203125 -29.144531 24.328125 -25.15625 C 26.460938 -21.164062 29.441406 -18.023438 33.265625 -15.734375 C 37.097656 -13.441406 41.472656 -12.296875 46.390625 -12.296875 Z M 69.828125 0 L 69.828125 -20.984375 L 72.609375 -40 L 69.828125 -58.84375 L 69.828125 -77.859375 L 84.734375 -77.859375 L 84.734375 0 Z M 69.828125 0 "/></g></g></g><g fill="#ffffff" fill-opacity="1"><g transform="translate(476.721518, 248.007149)"><g><path d="M 10.8125 0 L 10.8125 -77.859375 L 25.5625 -77.859375 L 25.5625 0 Z M 63.4375 0 L 63.4375 -47.046875 C 63.4375 -52.835938 61.660156 -57.394531 58.109375 -60.71875 C 54.554688 -64.050781 50.101562 -65.71875 44.75 -65.71875 C 41.144531 -65.71875 37.921875 -64.953125 35.078125 -63.421875 C 32.234375 -61.898438 29.9375 -59.769531 28.1875 -57.03125 C 26.4375 -54.300781 25.5625 -51.023438 25.5625 -47.203125 L 19.5 -50.15625 C 19.5 -56.050781 20.78125 -61.1875 23.34375 -65.5625 C 25.914062 -69.9375 29.441406 -73.351562 33.921875 -75.8125 C 38.410156 -78.269531 43.441406 -79.5 49.015625 -79.5 C 54.472656 -79.5 59.414062 -78.296875 63.84375 -75.890625 C 68.269531 -73.484375 71.765625 -70.09375 74.328125 -65.71875 C 76.898438 -61.351562 78.1875 -56.164062 78.1875 -50.15625 L 78.1875 0 Z M 116.046875 0 L 116.046875 -47.046875 C 116.046875 -52.835938 114.269531 -57.394531 110.71875 -60.71875 C 107.164062 -64.050781 102.769531 -65.71875 97.53125 -65.71875 C 93.914062 -65.71875 90.660156 -64.953125 87.765625 -63.421875 C 84.867188 -61.898438 82.546875 -59.769531 80.796875 -57.03125 C 79.054688 -54.300781 78.1875 -51.023438 78.1875 -47.203125 L 69.828125 -50.15625 C 70.148438 -56.164062 71.757812 -61.328125 74.65625 -65.640625 C 77.550781 -69.960938 81.289062 -73.351562 85.875 -75.8125 C 90.46875 -78.269531 95.5 -79.5 100.96875 -79.5 C 106.644531 -79.5 111.722656 -78.296875 116.203125 -75.890625 C 120.691406 -73.484375 124.273438 -70.09375 126.953125 -65.71875 C 129.628906 -61.351562 130.96875 -56.109375 130.96875 -49.984375 L 130.96875 0 Z M 116.046875 0 "/></g></g></g><g fill="#ffffff" fill-opacity="1"><g transform="translate(611.622431, 248.007149)"><g><path d="M 10.984375 0 L 10.984375 -77.859375 L 25.734375 -77.859375 L 25.734375 0 Z M 18.359375 -93.421875 C 15.628906 -93.421875 13.390625 -94.320312 11.640625 -96.125 C 9.890625 -97.925781 9.015625 -100.195312 9.015625 -102.9375 C 9.015625 -105.550781 9.890625 -107.757812 11.640625 -109.5625 C 13.390625 -111.375 15.628906 -112.28125 18.359375 -112.28125 C 21.085938 -112.28125 23.328125 -111.375 25.078125 -109.5625 C 26.828125 -107.757812 27.703125 -105.550781 27.703125 -102.9375 C 27.703125 -100.195312 26.828125 -97.925781 25.078125 -96.125 C 23.328125 -94.320312 21.085938 -93.421875 18.359375 -93.421875 Z M 18.359375 -93.421875 "/></g></g></g><g fill="#ffffff" fill-opacity="1"><g transform="translate(643.09381, 248.007149)"><g><path d="M 46.390625 1.640625 C 38.734375 1.640625 31.84375 -0.160156 25.71875 -3.765625 C 19.601562 -7.367188 14.742188 -12.257812 11.140625 -18.4375 C 7.535156 -24.613281 5.734375 -31.523438 5.734375 -39.171875 C 5.734375 -46.710938 7.535156 -53.515625 11.140625 -59.578125 C 14.742188 -65.640625 19.601562 -70.472656 25.71875 -74.078125 C 31.84375 -77.691406 38.734375 -79.5 46.390625 -79.5 C 53.921875 -79.5 60.773438 -77.722656 66.953125 -74.171875 C 73.128906 -70.617188 78.019531 -65.78125 81.625 -59.65625 C 85.226562 -53.539062 87.03125 -46.710938 87.03125 -39.171875 C 87.03125 -31.523438 85.226562 -24.613281 81.625 -18.4375 C 78.019531 -12.257812 73.128906 -7.367188 66.953125 -3.765625 C 60.773438 -0.160156 53.921875 1.640625 46.390625 1.640625 Z M 46.390625 -12.625 C 51.304688 -12.625 55.675781 -13.769531 59.5 -16.0625 C 63.320312 -18.351562 66.328125 -21.492188 68.515625 -25.484375 C 70.703125 -29.472656 71.796875 -34.035156 71.796875 -39.171875 C 71.796875 -44.203125 70.675781 -48.679688 68.4375 -52.609375 C 66.195312 -56.546875 63.191406 -59.632812 59.421875 -61.875 C 55.648438 -64.113281 51.304688 -65.234375 46.390625 -65.234375 C 41.472656 -65.234375 37.097656 -64.113281 33.265625 -61.875 C 29.441406 -59.632812 26.4375 -56.546875 24.25 -52.609375 C 22.070312 -48.679688 20.984375 -44.203125 20.984375 -39.171875 C 20.984375 -34.035156 22.070312 -29.472656 24.25 -25.484375 C 26.4375 -21.492188 29.441406 -18.351562 33.265625 -16.0625 C 37.097656 -13.769531 41.472656 -12.625 46.390625 -12.625 Z M 46.390625 -12.625 "/></g></g></g><g fill="#fe9b5e" fill-opacity="1"><g transform="translate(730.627116, 248.007149)"><g><path d="M 11.140625 0 L 11.140625 -115.71875 L 36.875 -115.71875 L 36.875 0 Z M 30.984375 0 L 30.984375 -22.625 L 88.1875 -22.625 L 88.1875 0 Z M 30.984375 0 "/></g></g></g><g fill="#fe9b5e" fill-opacity="1"><g transform="translate(817.337402, 248.007149)"><g><path d="M 42.125 1.640625 C 34.800781 1.640625 28.269531 -0.160156 22.53125 -3.765625 C 16.800781 -7.367188 12.269531 -12.285156 8.9375 -18.515625 C 5.601562 -24.742188 3.9375 -31.847656 3.9375 -39.828125 C 3.9375 -47.804688 5.601562 -54.910156 8.9375 -61.140625 C 12.269531 -67.367188 16.800781 -72.285156 22.53125 -75.890625 C 28.269531 -79.492188 34.800781 -81.296875 42.125 -81.296875 C 47.476562 -81.296875 52.3125 -80.253906 56.625 -78.171875 C 60.945312 -76.097656 64.472656 -73.234375 67.203125 -69.578125 C 69.929688 -65.921875 71.460938 -61.742188 71.796875 -57.046875 L 71.796875 -22.625 C 71.460938 -17.925781 69.957031 -13.742188 67.28125 -10.078125 C 64.601562 -6.421875 61.078125 -3.550781 56.703125 -1.46875 C 52.335938 0.601562 47.476562 1.640625 42.125 1.640625 Z M 47.203125 -20.984375 C 52.554688 -20.984375 56.875 -22.757812 60.15625 -26.3125 C 63.4375 -29.863281 65.078125 -34.367188 65.078125 -39.828125 C 65.078125 -43.546875 64.335938 -46.820312 62.859375 -49.65625 C 61.378906 -52.5 59.300781 -54.710938 56.625 -56.296875 C 53.945312 -57.878906 50.863281 -58.671875 47.375 -58.671875 C 43.875 -58.671875 40.785156 -57.878906 38.109375 -56.296875 C 35.429688 -54.710938 33.300781 -52.5 31.71875 -49.65625 C 30.132812 -46.820312 29.34375 -43.546875 29.34375 -39.828125 C 29.34375 -36.222656 30.101562 -33 31.625 -30.15625 C 33.15625 -27.3125 35.285156 -25.070312 38.015625 -23.4375 C 40.753906 -21.800781 43.816406 -20.984375 47.203125 -20.984375 Z M 64.09375 0 L 64.09375 -21.46875 L 67.859375 -40.8125 L 64.09375 -60.15625 L 64.09375 -79.65625 L 88.671875 -79.65625 L 88.671875 0 Z M 64.09375 0 "/></g></g></g><g fill="#fe9b5e" fill-opacity="1"><g transform="translate(909.620749, 248.007149)"><g><path d="M 54.75 1.640625 C 49.394531 1.640625 44.472656 0.519531 39.984375 -1.71875 C 35.503906 -3.957031 31.84375 -6.960938 29 -10.734375 C 26.164062 -14.503906 24.53125 -18.738281 24.09375 -23.4375 L 24.09375 -57.046875 C 24.53125 -61.742188 26.164062 -65.921875 29 -69.578125 C 31.84375 -73.234375 35.503906 -76.097656 39.984375 -78.171875 C 44.472656 -80.253906 49.394531 -81.296875 54.75 -81.296875 C 62.28125 -81.296875 68.96875 -79.492188 74.8125 -75.890625 C 80.664062 -72.285156 85.257812 -67.367188 88.59375 -61.140625 C 91.925781 -54.910156 93.59375 -47.804688 93.59375 -39.828125 C 93.59375 -31.847656 91.925781 -24.742188 88.59375 -18.515625 C 85.257812 -12.285156 80.664062 -7.367188 74.8125 -3.765625 C 68.96875 -0.160156 62.28125 1.640625 54.75 1.640625 Z M 8.84375 0 L 8.84375 -119 L 33.921875 -119 L 33.921875 -60.15625 L 29.828125 -40.8125 L 33.59375 -21.46875 L 33.59375 0 Z M 50.3125 -20.984375 C 53.8125 -20.984375 56.898438 -21.800781 59.578125 -23.4375 C 62.253906 -25.070312 64.359375 -27.3125 65.890625 -30.15625 C 67.421875 -33 68.1875 -36.222656 68.1875 -39.828125 C 68.1875 -43.546875 67.421875 -46.820312 65.890625 -49.65625 C 64.359375 -52.5 62.253906 -54.710938 59.578125 -56.296875 C 56.898438 -57.878906 53.8125 -58.671875 50.3125 -58.671875 C 46.820312 -58.671875 43.707031 -57.878906 40.96875 -56.296875 C 38.238281 -54.710938 36.132812 -52.5 34.65625 -49.65625 C 33.1875 -46.820312 32.453125 -43.546875 32.453125 -39.828125 C 32.453125 -36.109375 33.21875 -32.828125 34.75 -29.984375 C 36.28125 -27.148438 38.382812 -24.941406 41.0625 -23.359375 C 43.738281 -21.773438 46.820312 -20.984375 50.3125 -20.984375 Z M 50.3125 -20.984375 "/></g></g></g><g fill="#fe9b5e" fill-opacity="1"><g transform="translate(1001.904096, 248.007149)"><g><path d="M 37.859375 1.96875 C 33.160156 1.96875 28.539062 1.363281 24 0.15625 C 19.46875 -1.039062 15.265625 -2.757812 11.390625 -5 C 7.515625 -7.238281 4.207031 -9.832031 1.46875 -12.78125 L 15.734375 -27.203125 C 18.359375 -24.367188 21.472656 -22.15625 25.078125 -20.5625 C 28.679688 -18.976562 32.613281 -18.1875 36.875 -18.1875 C 39.820312 -18.1875 42.085938 -18.625 43.671875 -19.5 C 45.265625 -20.375 46.0625 -21.578125 46.0625 -23.109375 C 46.0625 -25.078125 45.101562 -26.578125 43.1875 -27.609375 C 41.28125 -28.648438 38.847656 -29.582031 35.890625 -30.40625 C 32.941406 -31.226562 29.828125 -32.128906 26.546875 -33.109375 C 23.273438 -34.085938 20.160156 -35.453125 17.203125 -37.203125 C 14.253906 -38.953125 11.851562 -41.382812 10 -44.5 C 8.144531 -47.613281 7.21875 -51.578125 7.21875 -56.390625 C 7.21875 -61.523438 8.523438 -65.972656 11.140625 -69.734375 C 13.765625 -73.503906 17.476562 -76.484375 22.28125 -78.671875 C 27.09375 -80.859375 32.722656 -81.953125 39.171875 -81.953125 C 45.941406 -81.953125 52.195312 -80.773438 57.9375 -78.421875 C 63.675781 -76.078125 68.347656 -72.609375 71.953125 -68.015625 L 57.6875 -53.59375 C 55.175781 -56.539062 52.363281 -58.613281 49.25 -59.8125 C 46.132812 -61.019531 43.101562 -61.625 40.15625 -61.625 C 37.3125 -61.625 35.179688 -61.210938 33.765625 -60.390625 C 32.347656 -59.578125 31.640625 -58.40625 31.640625 -56.875 C 31.640625 -55.238281 32.566406 -53.925781 34.421875 -52.9375 C 36.273438 -51.957031 38.675781 -51.082031 41.625 -50.3125 C 44.582031 -49.550781 47.695312 -48.625 50.96875 -47.53125 C 54.25 -46.4375 57.363281 -44.960938 60.3125 -43.109375 C 63.269531 -41.253906 65.675781 -38.769531 67.53125 -35.65625 C 69.382812 -32.539062 70.3125 -28.46875 70.3125 -23.4375 C 70.3125 -15.675781 67.390625 -9.5 61.546875 -4.90625 C 55.703125 -0.320312 47.804688 1.96875 37.859375 1.96875 Z M 37.859375 1.96875 "/></g></g></g><path fill="#fe9b5e" d="M 52.484375 148.035156 C 62.582031 129.050781 83.484375 116.429688 105.429688 113.84375 C 122.425781 111.839844 140.050781 115.082031 156.917969 123.671875 C 206.058594 151.320312 196.238281 205.890625 191.664062 223.605469 C 182.964844 257.300781 131.667969 263.066406 95.554688 262.445312 C 48.242188 261.625 29.320312 191.546875 52.484375 148.035156 " fill-opacity="1" fill-rule="nonzero"/><path fill="#fe9b5e" d="M 146.078125 143.964844 L 139.929688 149.828125 C 139.605469 150.132812 139.1875 150.289062 138.777344 150.289062 C 138.367188 150.289062 137.957031 150.136719 137.636719 149.839844 L 128.058594 140.800781 L 122.050781 149.550781 C 121.789062 149.941406 121.363281 150.203125 120.898438 150.261719 C 120.429688 150.320312 119.957031 150.1875 119.597656 149.878906 L 110.949219 142.441406 L 104.320312 149.738281 C 104.019531 150.066406 103.597656 150.265625 103.15625 150.285156 C 102.695312 150.300781 102.277344 150.144531 101.953125 149.839844 L 93.652344 142.21875 C 92.195312 143.832031 90.871094 145.59375 89.707031 147.492188 C 84.757812 155.613281 83.363281 165.199219 85.609375 174.183594 L 96.039062 181.246094 L 99.535156 169.585938 C 99.71875 168.984375 100.207031 168.539062 100.824219 168.421875 C 101.429688 168.304688 102.054688 168.539062 102.445312 169.03125 L 114.90625 184.621094 L 126.671875 166.414062 C 127.027344 165.867188 127.667969 165.566406 128.316406 165.664062 C 128.964844 165.765625 129.496094 166.226562 129.679688 166.859375 L 133.179688 179.253906 L 141.269531 170.550781 C 141.75 170.035156 142.511719 169.875 143.15625 170.15625 C 143.804688 170.4375 144.207031 171.101562 144.15625 171.804688 L 143.273438 184.777344 L 149.800781 181.804688 C 149.953125 181.5 150.105469 181.203125 150.25 180.902344 C 155.398438 170.183594 154.765625 157.707031 148.5625 147.519531 C 147.804688 146.269531 146.972656 145.085938 146.078125 143.964844 " fill-opacity="1" fill-rule="nonzero"/><path fill="#ffffff" d="M 150.25 180.902344 C 150.105469 181.203125 149.953125 181.5 149.800781 181.804688 L 150.308594 181.570312 L 151.589844 184.382812 L 147.417969 186.285156 C 145.476562 189.6875 143.273438 193.050781 140.824219 196.316406 C 128.257812 213.082031 123.652344 220.5 122.300781 222.808594 L 115.941406 222.808594 C 114.632812 220.574219 110.195312 213.472656 97.425781 196.320312 C 93.691406 191.3125 90.519531 186.105469 88 180.847656 C 87.707031 180.230469 87.433594 179.601562 87.171875 178.976562 L 83.367188 176.398438 L 85.101562 173.839844 L 85.609375 174.183594 C 83.363281 165.199219 84.757812 155.613281 89.707031 147.492188 C 90.871094 145.59375 92.195312 143.832031 93.652344 142.21875 L 92.523438 141.183594 L 94.613281 138.910156 L 95.84375 140.035156 C 101.8125 134.542969 109.570312 131.296875 117.871094 131.058594 C 118.699219 131.035156 119.539062 131.035156 120.375 131.058594 C 129.457031 131.320312 137.886719 135.175781 144.039062 141.640625 L 145.144531 140.582031 L 147.273438 142.820312 L 146.078125 143.964844 C 146.972656 145.085938 147.804688 146.269531 148.5625 147.519531 C 154.765625 157.707031 155.398438 170.183594 150.25 180.902344 Z M 120.46875 127.96875 C 119.570312 127.945312 118.664062 127.945312 117.773438 127.96875 C 105.171875 128.328125 93.691406 135.027344 87.070312 145.886719 C 80.320312 156.957031 79.625 170.523438 85.210938 182.183594 C 87.820312 187.617188 91.097656 192.996094 94.941406 198.167969 C 108.617188 216.53125 112.679688 223.324219 113.492188 224.753906 L 113.492188 224.355469 L 116.582031 224.355469 L 116.582031 225.902344 L 121.660156 225.902344 L 121.660156 224.355469 L 124.75 224.355469 L 124.75 224.757812 C 125.613281 223.238281 129.933594 216 143.292969 198.171875 C 147.152344 193.023438 150.429688 187.664062 153.035156 182.234375 C 158.636719 170.578125 157.953125 156.996094 151.199219 145.914062 C 144.574219 135.039062 133.082031 128.328125 120.46875 127.96875 " fill-opacity="1" fill-rule="nonzero"/><path fill="#ffffff" d="M 116.582031 225.902344 L 114.089844 225.902344 L 113.660156 225.058594 C 113.65625 225.050781 113.609375 224.957031 113.492188 224.753906 L 113.492188 229.402344 L 116.582031 229.402344 L 116.582031 225.902344 " fill-opacity="1" fill-rule="nonzero"/><path fill="#ffffff" d="M 114.089844 225.902344 L 116.582031 225.902344 L 116.582031 224.355469 L 113.492188 224.355469 L 113.492188 224.753906 C 113.609375 224.957031 113.65625 225.050781 113.660156 225.058594 L 114.089844 225.902344 " fill-opacity="1" fill-rule="nonzero"/><path fill="#ffffff" d="M 124.136719 225.898438 L 123.207031 225.902344 L 121.660156 225.902344 L 121.660156 229.402344 L 124.75 229.402344 L 124.75 224.757812 C 124.632812 224.960938 124.574219 225.066406 124.570312 225.074219 L 124.136719 225.898438 " fill-opacity="1" fill-rule="nonzero"/><path fill="#ffffff" d="M 121.660156 224.355469 L 121.660156 225.902344 L 123.207031 225.902344 L 124.136719 225.898438 L 124.570312 225.074219 C 124.574219 225.066406 124.632812 224.960938 124.75 224.757812 L 124.75 224.355469 L 121.660156 224.355469 " fill-opacity="1" fill-rule="nonzero"/><path fill="#ffffff" d="M 128.179688 244.71875 L 110.058594 244.71875 L 110.058594 232.492188 L 128.179688 232.492188 Z M 121.660156 230.945312 L 121.660156 229.402344 L 116.582031 229.402344 L 116.582031 230.945312 L 113.492188 230.945312 L 113.492188 229.402344 L 108.671875 229.402344 C 107.734375 229.402344 106.972656 230.160156 106.972656 231.101562 L 106.972656 246.105469 C 106.972656 247.042969 107.734375 247.804688 108.671875 247.804688 L 129.570312 247.804688 C 130.507812 247.804688 131.269531 247.042969 131.269531 246.105469 L 131.269531 231.101562 C 131.269531 230.160156 130.507812 229.402344 129.570312 229.402344 L 124.75 229.402344 L 124.75 230.945312 L 121.660156 230.945312 " fill-opacity="1" fill-rule="nonzero"/><path fill="#ffffff" d="M 116.582031 230.945312 L 116.582031 229.402344 L 113.492188 229.402344 L 113.492188 230.945312 L 116.582031 230.945312 " fill-opacity="1" fill-rule="nonzero"/><path fill="#ffffff" d="M 121.660156 230.945312 L 124.75 230.945312 L 124.75 229.402344 L 121.660156 229.402344 L 121.660156 230.945312 " fill-opacity="1" fill-rule="nonzero"/><path fill="#ffffff" d="M 141.074219 171.597656 C 141.074219 171.59375 141.074219 171.59375 141.074219 171.59375 C 141.074219 171.59375 141.074219 171.59375 141.074219 171.597656 Z M 129.265625 168.089844 L 129.265625 168.085938 Z M 113.832031 186.285156 C 113.832031 186.28125 113.832031 186.277344 113.835938 186.273438 C 113.832031 186.277344 113.832031 186.28125 113.832031 186.285156 Z M 100.027344 170.949219 C 100.03125 170.957031 100.035156 170.960938 100.035156 170.964844 C 100.035156 170.960938 100.03125 170.957031 100.027344 170.949219 Z M 144.15625 171.804688 C 144.207031 171.101562 143.804688 170.4375 143.15625 170.15625 C 142.511719 169.875 141.75 170.035156 141.269531 170.550781 L 133.179688 179.253906 L 129.679688 166.859375 C 129.496094 166.226562 128.964844 165.765625 128.316406 165.664062 C 127.667969 165.566406 127.027344 165.867188 126.671875 166.414062 L 114.90625 184.621094 L 102.445312 169.03125 C 102.054688 168.539062 101.429688 168.304688 100.824219 168.421875 C 100.207031 168.539062 99.71875 168.984375 99.535156 169.585938 L 96.039062 181.246094 L 85.609375 174.183594 C 86.015625 175.800781 86.53125 177.402344 87.171875 178.976562 L 95.910156 184.890625 C 96.347656 185.1875 96.902344 185.257812 97.402344 185.082031 C 97.902344 184.90625 98.289062 184.496094 98.441406 183.988281 L 101.714844 173.070312 L 113.726562 188.09375 C 114.0625 188.511719 114.589844 188.742188 115.121094 188.714844 C 115.652344 188.6875 116.144531 188.398438 116.429688 187.953125 L 127.5625 170.726562 L 130.898438 182.53125 C 131.0625 183.105469 131.527344 183.550781 132.109375 183.691406 C 132.695312 183.835938 133.308594 183.652344 133.722656 183.207031 L 140.800781 175.59375 L 140.03125 186.953125 C 139.992188 187.535156 140.269531 188.101562 140.746094 188.433594 C 141.027344 188.628906 141.359375 188.726562 141.691406 188.726562 C 141.929688 188.726562 142.164062 188.679688 142.386719 188.578125 L 147.417969 186.285156 C 148.261719 184.800781 149.058594 183.308594 149.800781 181.804688 L 143.273438 184.777344 L 144.15625 171.804688 " fill-opacity="1" fill-rule="nonzero"/><path fill="#ffffff" d="M 85.101562 173.839844 L 83.367188 176.398438 L 87.171875 178.976562 C 86.53125 177.402344 86.015625 175.800781 85.609375 174.183594 L 85.101562 173.839844 " fill-opacity="1" fill-rule="nonzero"/><path fill="#ffffff" d="M 151.589844 184.382812 L 150.308594 181.570312 L 149.800781 181.804688 C 149.058594 183.308594 148.261719 184.800781 147.417969 186.285156 L 151.589844 184.382812 " fill-opacity="1" fill-rule="nonzero"/><path fill="#ffffff" d="M 104.042969 147.570312 L 104.035156 147.5625 Z M 126.855469 139.664062 C 126.851562 139.664062 126.851562 139.664062 126.851562 139.664062 C 126.851562 139.664062 126.851562 139.664062 126.855469 139.664062 Z M 103.15625 150.285156 C 103.597656 150.265625 104.019531 150.066406 104.320312 149.738281 L 110.949219 142.441406 L 119.597656 149.878906 C 119.957031 150.1875 120.429688 150.320312 120.898438 150.261719 C 121.363281 150.203125 121.789062 149.941406 122.050781 149.550781 L 128.058594 140.800781 L 137.636719 149.839844 C 137.957031 150.136719 138.367188 150.289062 138.777344 150.289062 C 139.1875 150.289062 139.605469 150.132812 139.929688 149.828125 L 146.078125 143.964844 C 145.433594 143.148438 144.746094 142.382812 144.039062 141.640625 L 138.769531 146.660156 L 128.976562 137.414062 C 128.621094 137.078125 128.136719 136.921875 127.652344 136.96875 C 127.164062 137.019531 126.726562 137.28125 126.453125 137.6875 L 120.402344 146.496094 L 111.910156 139.195312 C 111.222656 138.613281 110.210938 138.675781 109.589844 139.34375 L 102.996094 146.601562 L 95.84375 140.035156 C 95.085938 140.730469 94.351562 141.453125 93.652344 142.21875 L 101.953125 149.839844 C 102.277344 150.144531 102.695312 150.300781 103.15625 150.285156 " fill-opacity="1" fill-rule="nonzero"/><path fill="#ffffff" d="M 95.84375 140.035156 L 94.613281 138.910156 L 92.523438 141.183594 L 93.652344 142.21875 C 94.351562 141.453125 95.085938 140.730469 95.84375 140.035156 " fill-opacity="1" fill-rule="nonzero"/><path fill="#ffffff" d="M 147.273438 142.820312 L 145.144531 140.582031 L 144.039062 141.640625 C 144.746094 142.382812 145.433594 143.148438 146.078125 143.964844 L 147.273438 142.820312 " fill-opacity="1" fill-rule="nonzero"/></svg>