<svg xmlns="http://www.w3.org/2000/svg" xmlns:xlink="http://www.w3.org/1999/xlink" width="1500" zoomAndPan="magnify" viewBox="0 0 1125 374.999991" height="500" preserveAspectRatio="xMidYMid meet" version="1.0"><defs><g/></defs><g fill="#ffffff" fill-opacity="1"><g transform="translate(84.431156, 252.314812)"><g><path d="M 25.9375 -54.03125 L 25.9375 -68.15625 L 59.578125 -68.15625 C 66.847656 -68.15625 72.453125 -70.003906 76.390625 -73.703125 C 80.328125 -77.398438 82.296875 -82.410156 82.296875 -88.734375 C 82.296875 -94.703125 80.359375 -99.648438 76.484375 -103.578125 C 72.609375 -107.515625 67.03125 -109.484375 59.75 -109.484375 L 25.9375 -109.484375 L 25.9375 -124.15625 L 60.296875 -124.15625 C 68.160156 -124.15625 75.015625 -122.632812 80.859375 -119.59375 C 86.703125 -116.550781 91.203125 -112.40625 94.359375 -107.15625 C 97.523438 -101.914062 99.109375 -95.894531 99.109375 -89.09375 C 99.109375 -82.0625 97.523438 -75.921875 94.359375 -70.671875 C 91.203125 -65.421875 86.703125 -61.332031 80.859375 -58.40625 C 75.015625 -55.488281 68.160156 -54.03125 60.296875 -54.03125 Z M 14.671875 0 L 14.671875 -124.15625 L 31.484375 -124.15625 L 31.484375 0 Z M 86.234375 0 L 41.140625 -55.640625 L 57.078125 -61.1875 L 107.515625 0 Z M 86.234375 0 "/></g></g></g><g fill="#ffffff" fill-opacity="1"><g transform="translate(191.419064, 252.314812)"><g><path d="M 50.625 1.78125 C 42.28125 1.78125 34.765625 -0.179688 28.078125 -4.109375 C 21.398438 -8.046875 16.09375 -13.382812 12.15625 -20.125 C 8.226562 -26.863281 6.265625 -34.410156 6.265625 -42.765625 C 6.265625 -50.992188 8.226562 -58.414062 12.15625 -65.03125 C 16.09375 -71.65625 21.398438 -76.929688 28.078125 -80.859375 C 34.765625 -84.796875 42.28125 -86.765625 50.625 -86.765625 C 58.851562 -86.765625 66.335938 -84.828125 73.078125 -80.953125 C 79.816406 -77.078125 85.15625 -71.800781 89.09375 -65.125 C 93.03125 -58.445312 95 -50.992188 95 -42.765625 C 95 -34.410156 93.03125 -26.863281 89.09375 -20.125 C 85.15625 -13.382812 79.816406 -8.046875 73.078125 -4.109375 C 66.335938 -0.179688 58.851562 1.78125 50.625 1.78125 Z M 50.625 -13.78125 C 56 -13.78125 60.769531 -15.03125 64.9375 -17.53125 C 69.113281 -20.039062 72.394531 -23.46875 74.78125 -27.8125 C 77.164062 -32.164062 78.359375 -37.148438 78.359375 -42.765625 C 78.359375 -48.242188 77.132812 -53.128906 74.6875 -57.421875 C 72.25 -61.722656 68.972656 -65.09375 64.859375 -67.53125 C 60.742188 -69.976562 56 -71.203125 50.625 -71.203125 C 45.257812 -71.203125 40.488281 -69.976562 36.3125 -67.53125 C 32.144531 -65.09375 28.867188 -61.722656 26.484375 -57.421875 C 24.097656 -53.128906 22.90625 -48.242188 22.90625 -42.765625 C 22.90625 -37.148438 24.097656 -32.164062 26.484375 -27.8125 C 28.867188 -23.46875 32.144531 -20.039062 36.3125 -17.53125 C 40.488281 -15.03125 45.257812 -13.78125 50.625 -13.78125 Z M 50.625 -13.78125 "/></g></g></g><g fill="#ffffff" fill-opacity="1"><g transform="translate(286.956735, 252.314812)"><g><path d="M 47.953125 1.78125 C 40.191406 1.78125 33.148438 -0.15625 26.828125 -4.03125 C 20.515625 -7.90625 15.535156 -13.179688 11.890625 -19.859375 C 8.253906 -26.535156 6.4375 -34.050781 6.4375 -42.40625 C 6.4375 -50.75 8.253906 -58.257812 11.890625 -64.9375 C 15.535156 -71.625 20.488281 -76.929688 26.75 -80.859375 C 33.007812 -84.796875 40.078125 -86.765625 47.953125 -86.765625 C 54.390625 -86.765625 60.140625 -85.421875 65.203125 -82.734375 C 70.273438 -80.054688 74.363281 -76.359375 77.46875 -71.640625 C 80.570312 -66.929688 82.300781 -61.476562 82.65625 -55.28125 L 82.65625 -29.703125 C 82.300781 -23.617188 80.601562 -18.191406 77.5625 -13.421875 C 74.519531 -8.648438 70.460938 -4.921875 65.390625 -2.234375 C 60.316406 0.441406 54.503906 1.78125 47.953125 1.78125 Z M 50.625 -13.421875 C 58.613281 -13.421875 65.050781 -16.132812 69.9375 -21.5625 C 74.832031 -26.988281 77.28125 -33.9375 77.28125 -42.40625 C 77.28125 -48.25 76.175781 -53.347656 73.96875 -57.703125 C 71.769531 -62.054688 68.640625 -65.453125 64.578125 -67.890625 C 60.523438 -70.335938 55.816406 -71.5625 50.453125 -71.5625 C 45.085938 -71.5625 40.347656 -70.304688 36.234375 -67.796875 C 32.117188 -65.296875 28.894531 -61.867188 26.5625 -57.515625 C 24.238281 -53.160156 23.078125 -48.179688 23.078125 -42.578125 C 23.078125 -36.847656 24.238281 -31.804688 26.5625 -27.453125 C 28.894531 -23.109375 32.144531 -19.679688 36.3125 -17.171875 C 40.488281 -14.671875 45.257812 -13.421875 50.625 -13.421875 Z M 76.21875 0 L 76.21875 -22.90625 L 79.25 -43.65625 L 76.21875 -64.234375 L 76.21875 -84.984375 L 92.5 -84.984375 L 92.5 0 Z M 76.21875 0 "/></g></g></g><g fill="#ffffff" fill-opacity="1"><g transform="translate(385.356982, 252.314812)"><g><path d="M 11.8125 0 L 11.8125 -84.984375 L 27.90625 -84.984375 L 27.90625 0 Z M 69.234375 0 L 69.234375 -51.34375 C 69.234375 -57.664062 67.296875 -62.644531 63.421875 -66.28125 C 59.546875 -69.914062 54.6875 -71.734375 48.84375 -71.734375 C 44.90625 -71.734375 41.382812 -70.898438 38.28125 -69.234375 C 35.1875 -67.566406 32.679688 -65.238281 30.765625 -62.25 C 28.859375 -59.269531 27.90625 -55.695312 27.90625 -51.53125 L 21.296875 -54.75 C 21.296875 -61.1875 22.695312 -66.789062 25.5 -71.5625 C 28.300781 -76.332031 32.144531 -80.054688 37.03125 -82.734375 C 41.925781 -85.421875 47.414062 -86.765625 53.5 -86.765625 C 59.457031 -86.765625 64.847656 -85.453125 69.671875 -82.828125 C 74.503906 -80.203125 78.320312 -76.503906 81.125 -71.734375 C 83.9375 -66.960938 85.34375 -61.300781 85.34375 -54.75 L 85.34375 0 Z M 126.671875 0 L 126.671875 -51.34375 C 126.671875 -57.664062 124.726562 -62.644531 120.84375 -66.28125 C 116.96875 -69.914062 112.171875 -71.734375 106.453125 -71.734375 C 102.515625 -71.734375 98.960938 -70.898438 95.796875 -69.234375 C 92.640625 -67.566406 90.109375 -65.238281 88.203125 -62.25 C 86.296875 -59.269531 85.34375 -55.695312 85.34375 -51.53125 L 76.21875 -54.75 C 76.570312 -61.300781 78.328125 -66.929688 81.484375 -71.640625 C 84.648438 -76.359375 88.738281 -80.054688 93.75 -82.734375 C 98.757812 -85.421875 104.242188 -86.765625 110.203125 -86.765625 C 116.410156 -86.765625 121.957031 -85.453125 126.84375 -82.828125 C 131.726562 -80.203125 135.632812 -76.503906 138.5625 -71.734375 C 141.488281 -66.960938 142.953125 -61.238281 142.953125 -54.5625 L 142.953125 0 Z M 126.671875 0 "/></g></g></g><g fill="#ffffff" fill-opacity="1"><g transform="translate(532.599619, 252.314812)"><g><path d="M 11.984375 0 L 11.984375 -84.984375 L 28.09375 -84.984375 L 28.09375 0 Z M 20.03125 -101.96875 C 17.050781 -101.96875 14.609375 -102.953125 12.703125 -104.921875 C 10.796875 -106.890625 9.84375 -109.367188 9.84375 -112.359375 C 9.84375 -115.210938 10.796875 -117.625 12.703125 -119.59375 C 14.609375 -121.5625 17.050781 -122.546875 20.03125 -122.546875 C 23.019531 -122.546875 25.46875 -121.5625 27.375 -119.59375 C 29.28125 -117.625 30.234375 -115.210938 30.234375 -112.359375 C 30.234375 -109.367188 29.28125 -106.890625 27.375 -104.921875 C 25.46875 -102.953125 23.019531 -101.96875 20.03125 -101.96875 Z M 20.03125 -101.96875 "/></g></g></g><g fill="#ffffff" fill-opacity="1"><g transform="translate(566.950081, 252.314812)"><g><path d="M 50.625 1.78125 C 42.28125 1.78125 34.765625 -0.179688 28.078125 -4.109375 C 21.398438 -8.046875 16.09375 -13.382812 12.15625 -20.125 C 8.226562 -26.863281 6.265625 -34.410156 6.265625 -42.765625 C 6.265625 -50.992188 8.226562 -58.414062 12.15625 -65.03125 C 16.09375 -71.65625 21.398438 -76.929688 28.078125 -80.859375 C 34.765625 -84.796875 42.28125 -86.765625 50.625 -86.765625 C 58.851562 -86.765625 66.335938 -84.828125 73.078125 -80.953125 C 79.816406 -77.078125 85.15625 -71.800781 89.09375 -65.125 C 93.03125 -58.445312 95 -50.992188 95 -42.765625 C 95 -34.410156 93.03125 -26.863281 89.09375 -20.125 C 85.15625 -13.382812 79.816406 -8.046875 73.078125 -4.109375 C 66.335938 -0.179688 58.851562 1.78125 50.625 1.78125 Z M 50.625 -13.78125 C 56 -13.78125 60.769531 -15.03125 64.9375 -17.53125 C 69.113281 -20.039062 72.394531 -23.46875 74.78125 -27.8125 C 77.164062 -32.164062 78.359375 -37.148438 78.359375 -42.765625 C 78.359375 -48.242188 77.132812 -53.128906 74.6875 -57.421875 C 72.25 -61.722656 68.972656 -65.09375 64.859375 -67.53125 C 60.742188 -69.976562 56 -71.203125 50.625 -71.203125 C 45.257812 -71.203125 40.488281 -69.976562 36.3125 -67.53125 C 32.144531 -65.09375 28.867188 -61.722656 26.484375 -57.421875 C 24.097656 -53.128906 22.90625 -48.242188 22.90625 -42.765625 C 22.90625 -37.148438 24.097656 -32.164062 26.484375 -27.8125 C 28.867188 -23.46875 32.144531 -20.039062 36.3125 -17.53125 C 40.488281 -15.03125 45.257812 -13.78125 50.625 -13.78125 Z M 50.625 -13.78125 "/></g></g></g><g fill="#fe9b5e" fill-opacity="1"><g transform="translate(662.501845, 252.314812)"><g><path d="M 12.171875 0 L 12.171875 -126.3125 L 40.25 -126.3125 L 40.25 0 Z M 33.8125 0 L 33.8125 -24.6875 L 96.25 -24.6875 L 96.25 0 Z M 33.8125 0 "/></g></g></g><g fill="#fe9b5e" fill-opacity="1"><g transform="translate(757.144952, 252.314812)"><g><path d="M 45.984375 1.78125 C 37.984375 1.78125 30.851562 -0.179688 24.59375 -4.109375 C 18.332031 -8.046875 13.382812 -13.410156 9.75 -20.203125 C 6.113281 -27.003906 4.296875 -34.757812 4.296875 -43.46875 C 4.296875 -52.175781 6.113281 -59.925781 9.75 -66.71875 C 13.382812 -73.519531 18.332031 -78.890625 24.59375 -82.828125 C 30.851562 -86.765625 37.984375 -88.734375 45.984375 -88.734375 C 51.828125 -88.734375 57.101562 -87.597656 61.8125 -85.328125 C 66.519531 -83.066406 70.363281 -79.9375 73.34375 -75.9375 C 76.332031 -71.945312 78.003906 -67.390625 78.359375 -62.265625 L 78.359375 -24.6875 C 78.003906 -19.5625 76.363281 -15 73.4375 -11 C 70.519531 -7.007812 66.675781 -3.878906 61.90625 -1.609375 C 57.132812 0.648438 51.828125 1.78125 45.984375 1.78125 Z M 51.53125 -22.90625 C 57.375 -22.90625 62.082031 -24.84375 65.65625 -28.71875 C 69.238281 -32.59375 71.03125 -37.507812 71.03125 -43.46875 C 71.03125 -47.53125 70.222656 -51.109375 68.609375 -54.203125 C 66.992188 -57.304688 64.722656 -59.722656 61.796875 -61.453125 C 58.878906 -63.179688 55.515625 -64.046875 51.703125 -64.046875 C 47.890625 -64.046875 44.519531 -63.179688 41.59375 -61.453125 C 38.675781 -59.722656 36.351562 -57.304688 34.625 -54.203125 C 32.894531 -51.109375 32.03125 -47.53125 32.03125 -43.46875 C 32.03125 -39.53125 32.863281 -36.007812 34.53125 -32.90625 C 36.195312 -29.8125 38.519531 -27.367188 41.5 -25.578125 C 44.488281 -23.796875 47.832031 -22.90625 51.53125 -22.90625 Z M 69.953125 0 L 69.953125 -23.4375 L 74.0625 -44.546875 L 69.953125 -65.65625 L 69.953125 -86.953125 L 96.78125 -86.953125 L 96.78125 0 Z M 69.953125 0 "/></g></g></g><g fill="#fe9b5e" fill-opacity="1"><g transform="translate(857.870998, 252.314812)"><g><path d="M 59.75 1.78125 C 53.90625 1.78125 48.535156 0.5625 43.640625 -1.875 C 38.753906 -4.320312 34.757812 -7.601562 31.65625 -11.71875 C 28.5625 -15.832031 26.773438 -20.453125 26.296875 -25.578125 L 26.296875 -62.265625 C 26.773438 -67.390625 28.5625 -71.945312 31.65625 -75.9375 C 34.757812 -79.9375 38.753906 -83.066406 43.640625 -85.328125 C 48.535156 -87.597656 53.90625 -88.734375 59.75 -88.734375 C 67.976562 -88.734375 75.28125 -86.765625 81.65625 -82.828125 C 88.039062 -78.890625 93.050781 -73.519531 96.6875 -66.71875 C 100.332031 -59.925781 102.15625 -52.175781 102.15625 -43.46875 C 102.15625 -34.757812 100.332031 -27.003906 96.6875 -20.203125 C 93.050781 -13.410156 88.039062 -8.046875 81.65625 -4.109375 C 75.28125 -0.179688 67.976562 1.78125 59.75 1.78125 Z M 9.65625 0 L 9.65625 -129.890625 L 37.03125 -129.890625 L 37.03125 -65.65625 L 32.5625 -44.546875 L 36.671875 -23.4375 L 36.671875 0 Z M 54.921875 -22.90625 C 58.742188 -22.90625 62.113281 -23.796875 65.03125 -25.578125 C 67.957031 -27.367188 70.253906 -29.8125 71.921875 -32.90625 C 73.585938 -36.007812 74.421875 -39.53125 74.421875 -43.46875 C 74.421875 -47.53125 73.585938 -51.109375 71.921875 -54.203125 C 70.253906 -57.304688 67.957031 -59.722656 65.03125 -61.453125 C 62.113281 -63.179688 58.742188 -64.046875 54.921875 -64.046875 C 51.109375 -64.046875 47.707031 -63.179688 44.71875 -61.453125 C 41.738281 -59.722656 39.441406 -57.304688 37.828125 -54.203125 C 36.222656 -51.109375 35.421875 -47.53125 35.421875 -43.46875 C 35.421875 -39.414062 36.253906 -35.835938 37.921875 -32.734375 C 39.597656 -29.640625 41.894531 -27.226562 44.8125 -25.5 C 47.738281 -23.769531 51.109375 -22.90625 54.921875 -22.90625 Z M 54.921875 -22.90625 "/></g></g></g><g fill="#fe9b5e" fill-opacity="1"><g transform="translate(958.597045, 252.314812)"><g><path d="M 41.328125 2.140625 C 36.203125 2.140625 31.160156 1.484375 26.203125 0.171875 C 21.253906 -1.128906 16.660156 -3.003906 12.421875 -5.453125 C 8.191406 -7.898438 4.585938 -10.734375 1.609375 -13.953125 L 17.171875 -29.703125 C 20.035156 -26.597656 23.4375 -24.179688 27.375 -22.453125 C 31.3125 -20.722656 35.601562 -19.859375 40.25 -19.859375 C 43.46875 -19.859375 45.941406 -20.332031 47.671875 -21.28125 C 49.398438 -22.238281 50.265625 -23.550781 50.265625 -25.21875 C 50.265625 -27.375 49.222656 -29.015625 47.140625 -30.140625 C 45.054688 -31.273438 42.398438 -32.289062 39.171875 -33.1875 C 35.953125 -34.082031 32.550781 -35.066406 28.96875 -36.140625 C 25.394531 -37.210938 22 -38.703125 18.78125 -40.609375 C 15.5625 -42.515625 12.9375 -45.164062 10.90625 -48.5625 C 8.882812 -51.96875 7.875 -56.296875 7.875 -61.546875 C 7.875 -67.148438 9.300781 -72.007812 12.15625 -76.125 C 15.019531 -80.238281 19.078125 -83.488281 24.328125 -85.875 C 29.578125 -88.257812 35.722656 -89.453125 42.765625 -89.453125 C 50.148438 -89.453125 56.972656 -88.171875 63.234375 -85.609375 C 69.503906 -83.046875 74.609375 -79.257812 78.546875 -74.25 L 62.96875 -58.5 C 60.226562 -61.71875 57.15625 -63.984375 53.75 -65.296875 C 50.351562 -66.609375 47.046875 -67.265625 43.828125 -67.265625 C 40.734375 -67.265625 38.410156 -66.816406 36.859375 -65.921875 C 35.304688 -65.023438 34.53125 -63.742188 34.53125 -62.078125 C 34.53125 -60.285156 35.539062 -58.851562 37.5625 -57.78125 C 39.59375 -56.707031 42.21875 -55.753906 45.4375 -54.921875 C 48.65625 -54.085938 52.050781 -53.070312 55.625 -51.875 C 59.207031 -50.6875 62.609375 -49.078125 65.828125 -47.046875 C 69.054688 -45.023438 71.679688 -42.3125 73.703125 -38.90625 C 75.734375 -35.507812 76.75 -31.066406 76.75 -25.578125 C 76.75 -17.109375 73.554688 -10.367188 67.171875 -5.359375 C 60.796875 -0.359375 52.179688 2.140625 41.328125 2.140625 Z M 41.328125 2.140625 "/></g></g></g></svg>