<svg xmlns="http://www.w3.org/2000/svg" xmlns:xlink="http://www.w3.org/1999/xlink" width="1500" zoomAndPan="magnify" viewBox="0 0 1125 374.999991" height="500" preserveAspectRatio="xMidYMid meet" version="1.0"><defs><g/></defs><g fill="#000000" fill-opacity="1"><g transform="translate(200.551019, 247.306507)"><g><path d="M 23.9375 -49.859375 L 23.9375 -62.90625 L 54.96875 -62.90625 C 61.6875 -62.90625 66.859375 -64.609375 70.484375 -68.015625 C 74.117188 -71.429688 75.9375 -76.054688 75.9375 -81.890625 C 75.9375 -87.390625 74.148438 -91.953125 70.578125 -95.578125 C 67.003906 -99.210938 61.859375 -101.03125 55.140625 -101.03125 L 23.9375 -101.03125 L 23.9375 -114.578125 L 55.640625 -114.578125 C 62.898438 -114.578125 69.226562 -113.171875 74.625 -110.359375 C 80.019531 -107.554688 84.175781 -103.734375 87.09375 -98.890625 C 90.007812 -94.046875 91.46875 -88.488281 91.46875 -82.21875 C 91.46875 -75.71875 90.007812 -70.046875 87.09375 -65.203125 C 84.175781 -60.367188 80.019531 -56.601562 74.625 -53.90625 C 69.226562 -51.207031 62.898438 -49.859375 55.640625 -49.859375 Z M 13.53125 0 L 13.53125 -114.578125 L 29.0625 -114.578125 L 29.0625 0 Z M 79.578125 0 L 37.96875 -51.34375 L 52.671875 -56.46875 L 99.21875 0 Z M 79.578125 0 "/></g></g></g><g fill="#000000" fill-opacity="1"><g transform="translate(299.27189, 247.306507)"><g><path d="M 46.71875 1.65625 C 39.019531 1.65625 32.085938 -0.160156 25.921875 -3.796875 C 19.753906 -7.429688 14.851562 -12.359375 11.21875 -18.578125 C 7.59375 -24.796875 5.78125 -31.753906 5.78125 -39.453125 C 5.78125 -47.046875 7.59375 -53.894531 11.21875 -60 C 14.851562 -66.113281 19.753906 -70.988281 25.921875 -74.625 C 32.085938 -78.257812 39.019531 -80.078125 46.71875 -80.078125 C 54.3125 -80.078125 61.21875 -78.285156 67.4375 -74.703125 C 73.65625 -71.128906 78.582031 -66.257812 82.21875 -60.09375 C 85.851562 -53.925781 87.671875 -47.046875 87.671875 -39.453125 C 87.671875 -31.753906 85.851562 -24.796875 82.21875 -18.578125 C 78.582031 -12.359375 73.65625 -7.429688 67.4375 -3.796875 C 61.21875 -0.160156 54.3125 1.65625 46.71875 1.65625 Z M 46.71875 -12.71875 C 51.675781 -12.71875 56.078125 -13.867188 59.921875 -16.171875 C 63.773438 -18.484375 66.800781 -21.648438 69 -25.671875 C 71.207031 -29.691406 72.3125 -34.285156 72.3125 -39.453125 C 72.3125 -44.515625 71.179688 -49.023438 68.921875 -52.984375 C 66.671875 -56.953125 63.644531 -60.0625 59.84375 -62.3125 C 56.050781 -64.570312 51.675781 -65.703125 46.71875 -65.703125 C 41.769531 -65.703125 37.367188 -64.570312 33.515625 -62.3125 C 29.660156 -60.0625 26.628906 -56.953125 24.421875 -52.984375 C 22.222656 -49.023438 21.125 -44.515625 21.125 -39.453125 C 21.125 -34.285156 22.222656 -29.691406 24.421875 -25.671875 C 26.628906 -21.648438 29.660156 -18.484375 33.515625 -16.171875 C 37.367188 -13.867188 41.769531 -12.71875 46.71875 -12.71875 Z M 46.71875 -12.71875 "/></g></g></g><g fill="#000000" fill-opacity="1"><g transform="translate(387.427292, 247.306507)"><g><path d="M 44.25 1.65625 C 37.09375 1.65625 30.597656 -0.128906 24.765625 -3.703125 C 18.929688 -7.285156 14.332031 -12.160156 10.96875 -18.328125 C 7.613281 -24.492188 5.9375 -31.425781 5.9375 -39.125 C 5.9375 -46.832031 7.613281 -53.765625 10.96875 -59.921875 C 14.332031 -66.085938 18.898438 -70.988281 24.671875 -74.625 C 30.453125 -78.257812 36.976562 -80.078125 44.25 -80.078125 C 50.1875 -80.078125 55.492188 -78.835938 60.171875 -76.359375 C 64.847656 -73.878906 68.617188 -70.460938 71.484375 -66.109375 C 74.347656 -61.765625 75.941406 -56.734375 76.265625 -51.015625 L 76.265625 -27.40625 C 75.941406 -21.789062 74.375 -16.78125 71.5625 -12.375 C 68.757812 -7.976562 65.019531 -4.539062 60.34375 -2.0625 C 55.664062 0.414062 50.300781 1.65625 44.25 1.65625 Z M 46.71875 -12.375 C 54.09375 -12.375 60.035156 -14.878906 64.546875 -19.890625 C 69.066406 -24.898438 71.328125 -31.3125 71.328125 -39.125 C 71.328125 -44.519531 70.304688 -49.222656 68.265625 -53.234375 C 66.234375 -57.253906 63.34375 -60.390625 59.59375 -62.640625 C 55.851562 -64.898438 51.507812 -66.03125 46.5625 -66.03125 C 41.601562 -66.03125 37.222656 -64.875 33.421875 -62.5625 C 29.628906 -60.257812 26.660156 -57.097656 24.515625 -53.078125 C 22.367188 -49.054688 21.296875 -44.460938 21.296875 -39.296875 C 21.296875 -34.015625 22.367188 -29.363281 24.515625 -25.34375 C 26.660156 -21.320312 29.660156 -18.15625 33.515625 -15.84375 C 37.367188 -13.53125 41.769531 -12.375 46.71875 -12.375 Z M 70.328125 0 L 70.328125 -21.125 L 73.140625 -40.28125 L 70.328125 -59.265625 L 70.328125 -78.421875 L 85.359375 -78.421875 L 85.359375 0 Z M 70.328125 0 "/></g></g></g><g fill="#000000" fill-opacity="1"><g transform="translate(478.224078, 247.306507)"><g><path d="M 10.890625 0 L 10.890625 -78.421875 L 25.75 -78.421875 L 25.75 0 Z M 63.890625 0 L 63.890625 -47.375 C 63.890625 -53.207031 62.097656 -57.800781 58.515625 -61.15625 C 54.941406 -64.519531 50.460938 -66.203125 45.078125 -66.203125 C 41.441406 -66.203125 38.191406 -65.429688 35.328125 -63.890625 C 32.460938 -62.347656 30.148438 -60.203125 28.390625 -57.453125 C 26.628906 -54.703125 25.75 -51.398438 25.75 -47.546875 L 19.640625 -50.515625 C 19.640625 -56.460938 20.929688 -61.632812 23.515625 -66.03125 C 26.109375 -70.4375 29.660156 -73.878906 34.171875 -76.359375 C 38.679688 -78.835938 43.742188 -80.078125 49.359375 -80.078125 C 54.867188 -80.078125 59.847656 -78.863281 64.296875 -76.4375 C 68.753906 -74.019531 72.273438 -70.609375 74.859375 -66.203125 C 77.453125 -61.796875 78.75 -56.566406 78.75 -50.515625 L 78.75 0 Z M 116.890625 0 L 116.890625 -47.375 C 116.890625 -53.207031 115.097656 -57.800781 111.515625 -61.15625 C 107.941406 -64.519531 103.515625 -66.203125 98.234375 -66.203125 C 94.597656 -66.203125 91.320312 -65.429688 88.40625 -63.890625 C 85.488281 -62.347656 83.148438 -60.203125 81.390625 -57.453125 C 79.628906 -54.703125 78.75 -51.398438 78.75 -47.546875 L 70.328125 -50.515625 C 70.660156 -56.566406 72.285156 -61.765625 75.203125 -66.109375 C 78.117188 -70.460938 81.882812 -73.878906 86.5 -76.359375 C 91.125 -78.835938 96.191406 -80.078125 101.703125 -80.078125 C 107.421875 -80.078125 112.535156 -78.863281 117.046875 -76.4375 C 121.554688 -74.019531 125.160156 -70.609375 127.859375 -66.203125 C 130.554688 -61.796875 131.90625 -56.515625 131.90625 -50.359375 L 131.90625 0 Z M 116.890625 0 "/></g></g></g><g fill="#000000" fill-opacity="1"><g transform="translate(614.089165, 247.306507)"><g><path d="M 11.0625 0 L 11.0625 -78.421875 L 25.921875 -78.421875 L 25.921875 0 Z M 18.484375 -94.109375 C 15.734375 -94.109375 13.476562 -95.015625 11.71875 -96.828125 C 9.957031 -98.640625 9.078125 -100.921875 9.078125 -103.671875 C 9.078125 -106.316406 9.957031 -108.546875 11.71875 -110.359375 C 13.476562 -112.179688 15.734375 -113.09375 18.484375 -113.09375 C 21.242188 -113.09375 23.503906 -112.179688 25.265625 -110.359375 C 27.023438 -108.546875 27.90625 -106.316406 27.90625 -103.671875 C 27.90625 -100.921875 27.023438 -98.640625 25.265625 -96.828125 C 23.503906 -95.015625 21.242188 -94.109375 18.484375 -94.109375 Z M 18.484375 -94.109375 "/></g></g></g><g fill="#000000" fill-opacity="1"><g transform="translate(645.78534, 247.306507)"><g><path d="M 46.71875 1.65625 C 39.019531 1.65625 32.085938 -0.160156 25.921875 -3.796875 C 19.753906 -7.429688 14.851562 -12.359375 11.21875 -18.578125 C 7.59375 -24.796875 5.78125 -31.753906 5.78125 -39.453125 C 5.78125 -47.046875 7.59375 -53.894531 11.21875 -60 C 14.851562 -66.113281 19.753906 -70.988281 25.921875 -74.625 C 32.085938 -78.257812 39.019531 -80.078125 46.71875 -80.078125 C 54.3125 -80.078125 61.21875 -78.285156 67.4375 -74.703125 C 73.65625 -71.128906 78.582031 -66.257812 82.21875 -60.09375 C 85.851562 -53.925781 87.671875 -47.046875 87.671875 -39.453125 C 87.671875 -31.753906 85.851562 -24.796875 82.21875 -18.578125 C 78.582031 -12.359375 73.65625 -7.429688 67.4375 -3.796875 C 61.21875 -0.160156 54.3125 1.65625 46.71875 1.65625 Z M 46.71875 -12.71875 C 51.675781 -12.71875 56.078125 -13.867188 59.921875 -16.171875 C 63.773438 -18.484375 66.800781 -21.648438 69 -25.671875 C 71.207031 -29.691406 72.3125 -34.285156 72.3125 -39.453125 C 72.3125 -44.515625 71.179688 -49.023438 68.921875 -52.984375 C 66.671875 -56.953125 63.644531 -60.0625 59.84375 -62.3125 C 56.050781 -64.570312 51.675781 -65.703125 46.71875 -65.703125 C 41.769531 -65.703125 37.367188 -64.570312 33.515625 -62.3125 C 29.660156 -60.0625 26.628906 -56.953125 24.421875 -52.984375 C 22.222656 -49.023438 21.125 -44.515625 21.125 -39.453125 C 21.125 -34.285156 22.222656 -29.691406 24.421875 -25.671875 C 26.628906 -21.648438 29.660156 -18.484375 33.515625 -16.171875 C 37.367188 -13.867188 41.769531 -12.71875 46.71875 -12.71875 Z M 46.71875 -12.71875 "/></g></g></g><g fill="#fa8942" fill-opacity="1"><g transform="translate(733.953748, 247.306507)"><g><path d="M 11.21875 0 L 11.21875 -116.5625 L 37.140625 -116.5625 L 37.140625 0 Z M 31.203125 0 L 31.203125 -22.78125 L 88.828125 -22.78125 L 88.828125 0 Z M 31.203125 0 "/></g></g></g><g fill="#fa8942" fill-opacity="1"><g transform="translate(821.28371, 247.306507)"><g><path d="M 42.421875 1.65625 C 35.054688 1.65625 28.484375 -0.160156 22.703125 -3.796875 C 16.921875 -7.429688 12.351562 -12.382812 9 -18.65625 C 5.644531 -24.925781 3.96875 -32.082031 3.96875 -40.125 C 3.96875 -48.15625 5.644531 -55.304688 9 -61.578125 C 12.351562 -67.847656 16.921875 -72.800781 22.703125 -76.4375 C 28.484375 -80.070312 35.054688 -81.890625 42.421875 -81.890625 C 47.816406 -81.890625 52.6875 -80.84375 57.03125 -78.75 C 61.382812 -76.65625 64.9375 -73.765625 67.6875 -70.078125 C 70.4375 -66.390625 71.976562 -62.179688 72.3125 -57.453125 L 72.3125 -22.78125 C 71.976562 -18.050781 70.460938 -13.84375 67.765625 -10.15625 C 65.066406 -6.46875 61.515625 -3.578125 57.109375 -1.484375 C 52.710938 0.609375 47.816406 1.65625 42.421875 1.65625 Z M 47.546875 -21.125 C 52.941406 -21.125 57.289062 -22.910156 60.59375 -26.484375 C 63.894531 -30.066406 65.546875 -34.613281 65.546875 -40.125 C 65.546875 -43.863281 64.800781 -47.160156 63.3125 -50.015625 C 61.820312 -52.878906 59.726562 -55.109375 57.03125 -56.703125 C 54.34375 -58.304688 51.238281 -59.109375 47.71875 -59.109375 C 44.1875 -59.109375 41.070312 -58.304688 38.375 -56.703125 C 35.6875 -55.109375 33.539062 -52.878906 31.9375 -50.015625 C 30.34375 -47.160156 29.546875 -43.863281 29.546875 -40.125 C 29.546875 -36.488281 30.316406 -33.238281 31.859375 -30.375 C 33.398438 -27.507812 35.546875 -25.25 38.296875 -23.59375 C 41.046875 -21.945312 44.128906 -21.125 47.546875 -21.125 Z M 64.546875 0 L 64.546875 -21.625 L 68.34375 -41.109375 L 64.546875 -60.59375 L 64.546875 -80.234375 L 89.3125 -80.234375 L 89.3125 0 Z M 64.546875 0 "/></g></g></g><g fill="#fa8942" fill-opacity="1"><g transform="translate(914.226579, 247.306507)"><g><path d="M 55.140625 1.65625 C 49.742188 1.65625 44.789062 0.523438 40.28125 -1.734375 C 35.769531 -3.992188 32.082031 -7.019531 29.21875 -10.8125 C 26.351562 -14.613281 24.703125 -18.878906 24.265625 -23.609375 L 24.265625 -57.453125 C 24.703125 -62.179688 26.351562 -66.390625 29.21875 -70.078125 C 32.082031 -73.765625 35.769531 -76.65625 40.28125 -78.75 C 44.789062 -80.84375 49.742188 -81.890625 55.140625 -81.890625 C 62.734375 -81.890625 69.472656 -80.070312 75.359375 -76.4375 C 81.253906 -72.800781 85.878906 -67.847656 89.234375 -61.578125 C 92.585938 -55.304688 94.265625 -48.15625 94.265625 -40.125 C 94.265625 -32.082031 92.585938 -24.925781 89.234375 -18.65625 C 85.878906 -12.382812 81.253906 -7.429688 75.359375 -3.796875 C 69.472656 -0.160156 62.734375 1.65625 55.140625 1.65625 Z M 8.921875 0 L 8.921875 -119.859375 L 34.171875 -119.859375 L 34.171875 -60.59375 L 30.046875 -41.109375 L 33.84375 -21.625 L 33.84375 0 Z M 50.6875 -21.125 C 54.207031 -21.125 57.316406 -21.945312 60.015625 -23.59375 C 62.710938 -25.25 64.828125 -27.507812 66.359375 -30.375 C 67.898438 -33.238281 68.671875 -36.488281 68.671875 -40.125 C 68.671875 -43.863281 67.898438 -47.160156 66.359375 -50.015625 C 64.828125 -52.878906 62.710938 -55.109375 60.015625 -56.703125 C 57.316406 -58.304688 54.207031 -59.109375 50.6875 -59.109375 C 47.164062 -59.109375 44.023438 -58.304688 41.265625 -56.703125 C 38.515625 -55.109375 36.394531 -52.878906 34.90625 -50.015625 C 33.425781 -47.160156 32.6875 -43.863281 32.6875 -40.125 C 32.6875 -36.375 33.457031 -33.066406 35 -30.203125 C 36.539062 -27.347656 38.660156 -25.117188 41.359375 -23.515625 C 44.054688 -21.921875 47.164062 -21.125 50.6875 -21.125 Z M 50.6875 -21.125 "/></g></g></g><g fill="#fa8942" fill-opacity="1"><g transform="translate(1007.169447, 247.306507)"><g><path d="M 38.140625 1.984375 C 33.398438 1.984375 28.742188 1.375 24.171875 0.15625 C 19.609375 -1.050781 15.375 -2.78125 11.46875 -5.03125 C 7.5625 -7.289062 4.234375 -9.90625 1.484375 -12.875 L 15.84375 -27.40625 C 18.488281 -24.539062 21.625 -22.3125 25.25 -20.71875 C 28.882812 -19.125 32.847656 -18.328125 37.140625 -18.328125 C 40.117188 -18.328125 42.40625 -18.765625 44 -19.640625 C 45.59375 -20.523438 46.390625 -21.738281 46.390625 -23.28125 C 46.390625 -25.257812 45.425781 -26.769531 43.5 -27.8125 C 41.570312 -28.863281 39.125 -29.800781 36.15625 -30.625 C 33.1875 -31.445312 30.050781 -32.351562 26.75 -33.34375 C 23.445312 -34.332031 20.304688 -35.707031 17.328125 -37.46875 C 14.359375 -39.238281 11.9375 -41.691406 10.0625 -44.828125 C 8.195312 -47.960938 7.265625 -51.953125 7.265625 -56.796875 C 7.265625 -61.960938 8.582031 -66.441406 11.21875 -70.234375 C 13.863281 -74.035156 17.609375 -77.035156 22.453125 -79.234375 C 27.296875 -81.441406 32.960938 -82.546875 39.453125 -82.546875 C 46.273438 -82.546875 52.578125 -81.363281 58.359375 -79 C 64.140625 -76.632812 68.84375 -73.140625 72.46875 -68.515625 L 58.109375 -53.984375 C 55.578125 -56.953125 52.742188 -59.039062 49.609375 -60.25 C 46.472656 -61.46875 43.421875 -62.078125 40.453125 -62.078125 C 37.585938 -62.078125 35.4375 -61.660156 34 -60.828125 C 32.570312 -60.003906 31.859375 -58.820312 31.859375 -57.28125 C 31.859375 -55.632812 32.789062 -54.316406 34.65625 -53.328125 C 36.53125 -52.335938 38.953125 -51.457031 41.921875 -50.6875 C 44.898438 -49.914062 48.039062 -48.976562 51.34375 -47.875 C 54.644531 -46.769531 57.78125 -45.28125 60.75 -43.40625 C 63.726562 -41.539062 66.148438 -39.039062 68.015625 -35.90625 C 69.890625 -32.769531 70.828125 -28.671875 70.828125 -23.609375 C 70.828125 -15.796875 67.878906 -9.578125 61.984375 -4.953125 C 56.097656 -0.328125 48.148438 1.984375 38.140625 1.984375 Z M 38.140625 1.984375 "/></g></g></g><path fill="#fa8942" d="M 50.949219 147.769531 C 61.121094 128.648438 82.175781 115.933594 104.277344 113.328125 C 121.394531 111.3125 139.144531 114.574219 156.136719 123.226562 C 205.628906 151.078125 195.738281 206.035156 191.128906 223.878906 C 182.367188 257.816406 130.703125 263.625 94.328125 262.996094 C 46.675781 262.171875 27.621094 191.59375 50.949219 147.769531 " fill-opacity="1" fill-rule="nonzero"/><path fill="#fa8942" d="M 145.21875 143.664062 L 139.023438 149.570312 C 138.695312 149.878906 138.277344 150.035156 137.863281 150.035156 C 137.449219 150.035156 137.035156 149.882812 136.714844 149.582031 L 127.070312 140.480469 L 121.019531 149.292969 C 120.75 149.6875 120.328125 149.949219 119.855469 150.007812 C 119.382812 150.070312 118.910156 149.933594 118.542969 149.621094 L 109.835938 142.132812 L 103.15625 149.480469 C 102.855469 149.8125 102.429688 150.011719 101.988281 150.03125 C 101.523438 150.046875 101.101562 149.890625 100.777344 149.582031 L 92.414062 141.910156 C 90.945312 143.53125 89.613281 145.304688 88.441406 147.21875 C 83.453125 155.398438 82.050781 165.050781 84.3125 174.101562 L 94.820312 181.21875 L 98.339844 169.472656 C 98.523438 168.867188 99.015625 168.417969 99.636719 168.300781 C 100.246094 168.183594 100.878906 168.417969 101.269531 168.914062 L 113.820312 184.613281 L 125.671875 166.277344 C 126.027344 165.726562 126.671875 165.425781 127.328125 165.523438 C 127.980469 165.621094 128.515625 166.089844 128.699219 166.722656 L 132.226562 179.207031 L 140.375 170.445312 C 140.855469 169.921875 141.625 169.761719 142.273438 170.042969 C 142.925781 170.328125 143.332031 171 143.28125 171.707031 L 142.390625 184.773438 L 148.96875 181.78125 C 149.117188 181.472656 149.269531 181.171875 149.417969 180.867188 C 154.605469 170.074219 153.964844 157.507812 147.71875 147.246094 C 146.953125 145.988281 146.117188 144.796875 145.21875 143.664062 " fill-opacity="1" fill-rule="nonzero"/><path fill="#ffffff" d="M 149.417969 180.867188 C 149.269531 181.171875 149.117188 181.472656 148.96875 181.78125 L 149.476562 181.542969 L 150.769531 184.375 L 146.566406 186.292969 C 144.609375 189.71875 142.390625 193.105469 139.921875 196.394531 C 127.269531 213.28125 122.628906 220.753906 121.269531 223.078125 L 114.863281 223.078125 C 113.546875 220.824219 109.074219 213.675781 96.214844 196.398438 C 92.453125 191.351562 89.257812 186.109375 86.722656 180.816406 C 86.425781 180.191406 86.152344 179.5625 85.890625 178.929688 L 82.054688 176.332031 L 83.804688 173.757812 L 84.3125 174.101562 C 82.050781 165.050781 83.453125 155.398438 88.441406 147.21875 C 89.613281 145.304688 90.945312 143.53125 92.414062 141.910156 L 91.277344 140.863281 L 93.382812 138.574219 L 94.621094 139.710938 C 100.632812 134.179688 108.445312 130.90625 116.804688 130.667969 C 117.640625 130.644531 118.488281 130.644531 119.328125 130.667969 C 128.472656 130.929688 136.96875 134.8125 143.164062 141.324219 L 144.277344 140.261719 L 146.421875 142.515625 L 145.21875 143.664062 C 146.117188 144.796875 146.953125 145.988281 147.71875 147.246094 C 153.964844 157.507812 154.605469 170.074219 149.417969 180.867188 Z M 119.421875 127.558594 C 118.519531 127.53125 117.605469 127.53125 116.710938 127.558594 C 104.015625 127.917969 92.453125 134.664062 85.785156 145.601562 C 78.988281 156.753906 78.289062 170.417969 83.914062 182.160156 C 86.542969 187.632812 89.839844 193.050781 93.714844 198.257812 C 107.488281 216.753906 111.578125 223.59375 112.394531 225.035156 L 112.394531 224.636719 L 115.511719 224.636719 L 115.511719 226.195312 L 120.621094 226.195312 L 120.621094 224.636719 L 123.734375 224.636719 L 123.734375 225.039062 C 124.601562 223.511719 128.957031 216.222656 142.410156 198.261719 C 146.296875 193.078125 149.597656 187.679688 152.222656 182.210938 C 157.867188 170.46875 157.175781 156.789062 150.375 145.628906 C 143.703125 134.675781 132.128906 127.917969 119.421875 127.558594 " fill-opacity="1" fill-rule="nonzero"/><path fill="#ffffff" d="M 115.511719 226.195312 L 113 226.195312 L 112.566406 225.34375 C 112.5625 225.335938 112.511719 225.238281 112.394531 225.035156 L 112.394531 229.71875 L 115.511719 229.71875 L 115.511719 226.195312 " fill-opacity="1" fill-rule="nonzero"/><path fill="#ffffff" d="M 113 226.195312 L 115.511719 226.195312 L 115.511719 224.636719 L 112.394531 224.636719 L 112.394531 225.035156 C 112.511719 225.238281 112.5625 225.335938 112.566406 225.34375 L 113 226.195312 " fill-opacity="1" fill-rule="nonzero"/><path fill="#ffffff" d="M 123.117188 226.1875 L 122.179688 226.195312 L 120.621094 226.195312 L 120.621094 229.71875 L 123.734375 229.71875 L 123.734375 225.039062 C 123.617188 225.242188 123.558594 225.351562 123.554688 225.359375 L 123.117188 226.1875 " fill-opacity="1" fill-rule="nonzero"/><path fill="#ffffff" d="M 120.621094 224.636719 L 120.621094 226.195312 L 122.179688 226.195312 L 123.117188 226.1875 L 123.554688 225.359375 C 123.558594 225.351562 123.617188 225.242188 123.734375 225.039062 L 123.734375 224.636719 L 120.621094 224.636719 " fill-opacity="1" fill-rule="nonzero"/><path fill="#ffffff" d="M 127.191406 245.140625 L 108.9375 245.140625 L 108.9375 232.828125 L 127.191406 232.828125 Z M 120.621094 231.273438 L 120.621094 229.71875 L 115.511719 229.71875 L 115.511719 231.273438 L 112.394531 231.273438 L 112.394531 229.71875 L 107.539062 229.71875 C 106.597656 229.71875 105.832031 230.484375 105.832031 231.429688 L 105.832031 246.539062 C 105.832031 247.488281 106.597656 248.253906 107.539062 248.253906 L 128.59375 248.253906 C 129.535156 248.253906 130.300781 247.488281 130.300781 246.539062 L 130.300781 231.429688 C 130.300781 230.484375 129.535156 229.71875 128.59375 229.71875 L 123.734375 229.71875 L 123.734375 231.273438 L 120.621094 231.273438 " fill-opacity="1" fill-rule="nonzero"/><path fill="#ffffff" d="M 115.511719 231.273438 L 115.511719 229.71875 L 112.394531 229.71875 L 112.394531 231.273438 L 115.511719 231.273438 " fill-opacity="1" fill-rule="nonzero"/><path fill="#ffffff" d="M 120.621094 231.273438 L 123.734375 231.273438 L 123.734375 229.71875 L 120.621094 229.71875 L 120.621094 231.273438 " fill-opacity="1" fill-rule="nonzero"/><path fill="#ffffff" d="M 140.175781 171.5 C 140.175781 171.496094 140.175781 171.496094 140.175781 171.492188 C 140.175781 171.496094 140.175781 171.496094 140.175781 171.5 Z M 128.285156 167.964844 L 128.285156 167.960938 Z M 112.738281 186.292969 C 112.738281 186.285156 112.742188 186.28125 112.746094 186.277344 C 112.742188 186.28125 112.738281 186.285156 112.738281 186.292969 Z M 98.835938 170.847656 C 98.839844 170.855469 98.84375 170.859375 98.84375 170.863281 C 98.84375 170.859375 98.839844 170.855469 98.835938 170.847656 Z M 143.28125 171.707031 C 143.332031 171 142.925781 170.328125 142.273438 170.042969 C 141.625 169.761719 140.855469 169.921875 140.375 170.445312 L 132.226562 179.207031 L 128.699219 166.722656 C 128.515625 166.089844 127.980469 165.621094 127.328125 165.523438 C 126.671875 165.425781 126.027344 165.726562 125.671875 166.277344 L 113.820312 184.613281 L 101.269531 168.914062 C 100.878906 168.417969 100.246094 168.183594 99.636719 168.300781 C 99.015625 168.417969 98.523438 168.867188 98.339844 169.472656 L 94.820312 181.21875 L 84.3125 174.101562 C 84.722656 175.730469 85.242188 177.347656 85.890625 178.929688 L 94.691406 184.886719 C 95.132812 185.1875 95.6875 185.253906 96.191406 185.082031 C 96.695312 184.902344 97.082031 184.488281 97.238281 183.980469 L 100.535156 172.980469 L 112.632812 188.113281 C 112.972656 188.535156 113.5 188.765625 114.035156 188.738281 C 114.570312 188.707031 115.070312 188.421875 115.355469 187.972656 L 126.566406 170.621094 L 129.929688 182.507812 C 130.09375 183.089844 130.558594 183.539062 131.148438 183.679688 C 131.738281 183.824219 132.355469 183.636719 132.773438 183.1875 L 139.898438 175.523438 L 139.125 186.964844 C 139.085938 187.550781 139.363281 188.121094 139.847656 188.453125 C 140.128906 188.652344 140.460938 188.75 140.800781 188.75 C 141.039062 188.75 141.273438 188.703125 141.5 188.601562 L 146.566406 186.292969 C 147.417969 184.796875 148.21875 183.292969 148.96875 181.78125 L 142.390625 184.773438 L 143.28125 171.707031 " fill-opacity="1" fill-rule="nonzero"/><path fill="#ffffff" d="M 83.804688 173.757812 L 82.054688 176.332031 L 85.890625 178.929688 C 85.242188 177.347656 84.722656 175.730469 84.3125 174.101562 L 83.804688 173.757812 " fill-opacity="1" fill-rule="nonzero"/><path fill="#ffffff" d="M 150.769531 184.375 L 149.476562 181.542969 L 148.96875 181.78125 C 148.21875 183.292969 147.417969 184.796875 146.566406 186.292969 L 150.769531 184.375 " fill-opacity="1" fill-rule="nonzero"/><path fill="#ffffff" d="M 102.878906 147.296875 L 102.871094 147.289062 Z M 125.855469 139.332031 C 125.851562 139.332031 125.851562 139.332031 125.851562 139.332031 C 125.851562 139.332031 125.851562 139.332031 125.855469 139.332031 Z M 101.988281 150.03125 C 102.429688 150.011719 102.855469 149.8125 103.15625 149.480469 L 109.835938 142.132812 L 118.542969 149.621094 C 118.910156 149.933594 119.382812 150.070312 119.855469 150.007812 C 120.328125 149.949219 120.75 149.6875 121.019531 149.292969 L 127.070312 140.480469 L 136.714844 149.582031 C 137.035156 149.882812 137.449219 150.035156 137.863281 150.035156 C 138.277344 150.035156 138.695312 149.878906 139.023438 149.570312 L 145.21875 143.664062 C 144.570312 142.84375 143.875 142.074219 143.164062 141.324219 L 137.855469 146.382812 L 127.992188 137.070312 C 127.636719 136.730469 127.144531 136.570312 126.660156 136.621094 C 126.167969 136.671875 125.726562 136.9375 125.449219 137.34375 L 119.359375 146.21875 L 110.804688 138.863281 C 110.113281 138.277344 109.089844 138.339844 108.46875 139.011719 L 101.824219 146.324219 L 94.621094 139.710938 C 93.859375 140.410156 93.117188 141.136719 92.414062 141.910156 L 100.777344 149.582031 C 101.101562 149.890625 101.523438 150.046875 101.988281 150.03125 " fill-opacity="1" fill-rule="nonzero"/><path fill="#ffffff" d="M 94.621094 139.710938 L 93.382812 138.574219 L 91.277344 140.863281 L 92.414062 141.910156 C 93.117188 141.136719 93.859375 140.410156 94.621094 139.710938 " fill-opacity="1" fill-rule="nonzero"/><path fill="#ffffff" d="M 146.421875 142.515625 L 144.277344 140.261719 L 143.164062 141.324219 C 143.875 142.074219 144.570312 142.84375 145.21875 143.664062 L 146.421875 142.515625 " fill-opacity="1" fill-rule="nonzero"/></svg>